<svg width="219" height="87" viewBox="0 0 219 87" fill="none" xmlns="http://www.w3.org/2000/svg">
<path d="M14.6484 48.3779V82.5029H10.3828V48.3779H14.6484ZM23.625 48.3779V52.0811H1.42969V48.3779H23.625ZM47.1797 63.0498V66.7295H32.3906V63.0498H47.1797ZM32.9766 48.3779V82.5029H28.6641V48.3779H32.9766ZM51 48.3779V82.5029H46.6875V48.3779H51ZM74.4844 48.3779H78.7969V72.4014C78.7969 74.9639 78.3047 77.0186 77.3203 78.5654C76.3359 80.1123 75.0391 81.2373 73.4297 81.9404C71.8359 82.6279 70.1172 82.9717 68.2734 82.9717C66.3047 82.9717 64.5312 82.6279 62.9531 81.9404C61.375 81.2373 60.1172 80.1123 59.1797 78.5654C58.2578 77.0186 57.7969 74.9639 57.7969 72.4014V48.3779H62.0859V72.4014C62.0859 74.1826 62.3359 75.5732 62.8359 76.5732C63.3516 77.5732 64.0703 78.2764 64.9922 78.6826C65.9297 79.0889 67.0234 79.292 68.2734 79.292C69.5391 79.292 70.6328 79.0889 71.5547 78.6826C72.4922 78.2764 73.2109 77.5732 73.7109 76.5732C74.2266 75.5732 74.4844 74.1826 74.4844 72.4014V48.3779ZM85.4062 48.3779H94.9453C97.1641 48.3779 99.0234 48.7686 100.523 49.5498C102.039 50.3311 103.18 51.4873 103.945 53.0186C104.727 54.5342 105.117 56.4014 105.117 58.6201C105.117 60.1826 104.859 61.6123 104.344 62.9092C103.828 64.1904 103.078 65.2842 102.094 66.1904C101.109 67.0811 99.9141 67.7451 98.5078 68.1826L97.3359 68.6748H88.8281L88.7812 64.9951H94.8984C96.2109 64.9951 97.3047 64.7139 98.1797 64.1514C99.0547 63.5732 99.7109 62.7998 100.148 61.8311C100.586 60.8623 100.805 59.792 100.805 58.6201C100.805 57.3076 100.609 56.1592 100.219 55.1748C99.8281 54.1904 99.2031 53.4326 98.3438 52.9014C97.5 52.3545 96.3672 52.0811 94.9453 52.0811H89.7188V82.5029H85.4062V48.3779ZM101.789 82.5029L94.9922 67.0342L99.4688 67.0107L106.406 82.2217V82.5029H101.789ZM121.945 51.4014L112.617 82.5029H108.211L119.203 48.3779H121.969L121.945 51.4014ZM129.492 82.5029L120.164 51.4014L120.117 48.3779H122.906L133.898 82.5029H129.492ZM129.492 69.8701V73.5732H113.039V69.8701H129.492ZM139.945 48.3779H144.117L153.047 76.1982L161.953 48.3779H166.125L154.664 82.5029H151.383L139.945 48.3779ZM138.586 48.3779H142.242L142.875 69.1904V82.5029H138.586V48.3779ZM163.805 48.3779H167.461V82.5029H163.172V69.1904L163.805 48.3779Z" fill="white"/>
<rect width="6.6352" height="34.9859" rx="3.3176" transform="matrix(0.490833 0.871254 -0.867831 0.496859 209.665 20.0034)" fill="#ECE88D" fill-opacity="0.5"/>
<rect width="6.6352" height="34.9859" rx="3.3176" transform="matrix(0.490833 0.871254 -0.867831 0.496859 215.743 38.6516)" fill="#ECE88D" fill-opacity="0.5"/>
<rect width="6.62463" height="35.042" rx="3.31232" transform="matrix(0.661737 0.749736 -0.744408 0.667725 194.086 0.113037)" fill="#ECE88D" fill-opacity="0.5"/>
</svg>
