<svg width="17" height="21" viewBox="0 0 17 21" fill="none" xmlns="http://www.w3.org/2000/svg">
<path d="M3.41889 9.4012C4.77889 12.5061 6.97 15.0515 9.64278 16.6313L11.7206 14.2176C11.985 13.9104 12.3533 13.8227 12.6839 13.9433C13.7417 14.3493 14.875 14.5687 16.0556 14.5687C16.306 14.5687 16.5463 14.6843 16.7234 14.8901C16.9005 15.0958 17 15.3749 17 15.6659V19.5058C17 19.7968 16.9005 20.0759 16.7234 20.2816C16.5463 20.4874 16.306 20.603 16.0556 20.603C11.7974 20.603 7.71356 18.6379 4.70256 15.1401C1.69156 11.6423 0 6.89828 0 1.95163C0 1.66065 0.0995037 1.38159 0.276621 1.17584C0.453739 0.970083 0.693962 0.854492 0.944444 0.854492H4.25C4.50048 0.854492 4.74071 0.970083 4.91782 1.17584C5.09494 1.38159 5.19445 1.66065 5.19445 1.95163C5.19445 3.32305 5.38333 4.63962 5.73278 5.86841C5.83667 6.25241 5.76111 6.6803 5.49667 6.98749L3.41889 9.4012Z" fill="white"/>
</svg>
