<svg width="45" height="45" viewBox="0 0 45 45" fill="none" xmlns="http://www.w3.org/2000/svg">
<circle cx="22.5" cy="22.5" r="22.5" fill="#195C62"/>
<path d="M17.4189 21.4012C18.7789 24.5061 20.97 27.0515 23.6428 28.6313L25.7206 26.2176C25.985 25.9104 26.3533 25.8227 26.6839 25.9433C27.7417 26.3493 28.875 26.5687 30.0556 26.5687C30.306 26.5687 30.5463 26.6843 30.7234 26.8901C30.9005 27.0958 31 27.3749 31 27.6659V31.5058C31 31.7968 30.9005 32.0759 30.7234 32.2816C30.5463 32.4874 30.306 32.603 30.0556 32.603C25.7974 32.603 21.7136 30.6379 18.7026 27.1401C15.6916 23.6423 14 18.8983 14 13.9516C14 13.6607 14.0995 13.3816 14.2766 13.1758C14.4537 12.9701 14.694 12.8545 14.9444 12.8545H18.25C18.5005 12.8545 18.7407 12.9701 18.9178 13.1758C19.0949 13.3816 19.1944 13.6607 19.1944 13.9516C19.1944 15.3231 19.3833 16.6396 19.7328 17.8684C19.8367 18.2524 19.7611 18.6803 19.4967 18.9875L17.4189 21.4012Z" fill="white"/>
</svg>
