<svg width="40" height="40" viewBox="0 0 40 40" fill="none" xmlns="http://www.w3.org/2000/svg">
<path fill-rule="evenodd" clip-rule="evenodd" d="M11.6 28H10V30H11.6C12.2 30 12.6 29.6 12.6 29C12.6 28.4 12.2 28 11.6 28ZM22 4H6V36H32V14L22 4ZM14.4 29.2C14.4 30.8 13.2 32 11.6 32H10V34H8V26H11.6C13.2 26 14.4 27.2 14.4 28.8V29.2ZM22.6 30.2C22.6 32.2 21 34 18.8 34H16V26H18.8C20.8 26 22.6 27.6 22.6 29.8V30.2ZM30 28H26V30H29V32H26V34H24V26H30V28ZM30 24H8V6H22V14H30V24ZM18.8 28H18V32H18.8C20 32 20.8 31.2 20.8 30C20.8 28.8 19.8 28 18.8 28Z" fill="#195C62"/>
</svg>
