<svg width="30" height="25" viewBox="0 0 30 25" fill="none" xmlns="http://www.w3.org/2000/svg">
<path d="M2.91667 24.2168C2.11459 24.2168 1.42771 23.9297 0.856044 23.3556C0.284377 22.7815 -0.000969746 22.0921 2.47595e-06 21.2876V3.7124C2.47595e-06 2.90687 0.285836 2.21705 0.857502 1.64293C1.42917 1.0688 2.11556 0.782229 2.91667 0.783206H26.25C27.0521 0.783206 27.739 1.07027 28.3106 1.64439C28.8823 2.21851 29.1676 2.90785 29.1667 3.7124V21.2876C29.1667 22.0931 28.8808 22.7829 28.3092 23.3571C27.7375 23.9312 27.0511 24.2178 26.25 24.2168H2.91667ZM14.5833 13.9646L26.25 6.6416V3.7124L14.5833 11.0354L2.91667 3.7124V6.6416L14.5833 13.9646Z" fill="#195C62"/>
</svg>
