<svg width="28" height="23" viewBox="0 0 28 23" fill="none" xmlns="http://www.w3.org/2000/svg">
<path d="M27.7074 11.7083L17.7074 21.7083C17.5676 21.8483 17.3893 21.9437 17.1952 21.9823C17.0011 22.021 16.8 22.0012 16.6171 21.9254C16.4343 21.8497 16.2781 21.7214 16.1682 21.5568C16.0583 21.3922 15.9998 21.1987 15.9999 21.0008V16.0295C8.86242 16.4345 3.96867 21.0633 2.59492 22.5295C2.37921 22.7599 2.09634 22.9164 1.78655 22.9767C1.47677 23.0369 1.15586 22.998 0.869495 22.8653C0.583132 22.7327 0.345907 22.5131 0.191579 22.2378C0.0372509 21.9625 -0.0263163 21.6455 0.00992401 21.332C0.473674 17.2995 2.68242 13.4208 6.22992 10.4108C9.17617 7.91079 12.7574 6.32454 15.9999 6.04704V1.00079C15.9998 0.802892 16.0583 0.609399 16.1682 0.444805C16.2781 0.280212 16.4343 0.151917 16.6171 0.076165C16.8 0.000412494 17.0011 -0.0193921 17.1952 0.0192583C17.3893 0.0579087 17.5676 0.153276 17.7074 0.293288L27.7074 10.2933C27.8004 10.3862 27.8742 10.4964 27.9245 10.6178C27.9748 10.7392 28.0007 10.8694 28.0007 11.0008C28.0007 11.1322 27.9748 11.2623 27.9245 11.3837C27.8742 11.5051 27.8004 11.6154 27.7074 11.7083Z" fill="#F8FDF9"/>
</svg>
