<svg width="30" height="31" viewBox="0 0 30 31" fill="none" xmlns="http://www.w3.org/2000/svg">
<path d="M20.9417 18.4292C21.0583 17.4626 21.1458 16.4959 21.1458 15.5C21.1458 14.5041 21.0583 13.5374 20.9417 12.5708H25.8708C26.1042 13.5081 26.25 14.4894 26.25 15.5C26.25 16.5106 26.1042 17.4918 25.8708 18.4292M18.3604 26.5724C19.2354 24.9467 19.9062 23.1891 20.3729 21.3584H24.675C23.2621 23.8017 21.0206 25.6526 18.3604 26.5724ZM17.9958 18.4292H11.1708C11.025 17.4626 10.9375 16.4959 10.9375 15.5C10.9375 14.5041 11.025 13.5228 11.1708 12.5708H17.9958C18.1271 13.5228 18.2292 14.5041 18.2292 15.5C18.2292 16.4959 18.1271 17.4626 17.9958 18.4292ZM14.5833 27.1582C13.3729 25.4007 12.3958 23.4528 11.7979 21.3584H17.3687C16.7708 23.4528 15.7937 25.4007 14.5833 27.1582ZM8.75 9.6416H4.49167C5.89 7.19164 8.12991 5.33785 10.7917 4.42763C9.91667 6.05333 9.26042 7.81085 8.75 9.6416ZM4.49167 21.3584H8.75C9.26042 23.1891 9.91667 24.9467 10.7917 26.5724C8.13549 25.6521 5.89873 23.8009 4.49167 21.3584ZM3.29583 18.4292C3.0625 17.4918 2.91667 16.5106 2.91667 15.5C2.91667 14.4894 3.0625 13.5081 3.29583 12.5708H8.225C8.10833 13.5374 8.02083 14.5041 8.02083 15.5C8.02083 16.4959 8.10833 17.4626 8.225 18.4292M14.5833 3.82714C15.7937 5.58466 16.7708 7.54722 17.3687 9.6416H11.7979C12.3958 7.54722 13.3729 5.58466 14.5833 3.82714ZM24.675 9.6416H20.3729C19.9165 7.82763 19.2406 6.07661 18.3604 4.42763C21.0437 5.35032 23.275 7.21036 24.675 9.6416ZM14.5833 0.854004C6.51875 0.854004 0 7.4447 0 15.5C0 19.3843 1.53645 23.1096 4.27136 25.8563C5.62555 27.2163 7.2332 28.2951 9.00253 29.0311C10.7719 29.7672 12.6682 30.146 14.5833 30.146C18.4511 30.146 22.1604 28.6029 24.8953 25.8563C27.6302 23.1096 29.1667 19.3843 29.1667 15.5C29.1667 13.5767 28.7895 11.6721 28.0566 9.89522C27.3237 8.11828 26.2495 6.50372 24.8953 5.14371C23.5411 3.78371 21.9335 2.70489 20.1641 1.96886C18.3948 1.23283 16.4984 0.854004 14.5833 0.854004Z" fill="#195C62"/>
</svg>
