<svg width="35" height="36" viewBox="0 0 35 36" fill="none" xmlns="http://www.w3.org/2000/svg">
<path d="M26.4097 6.42561L24.9938 6.41462L25.0036 4.94528C25.0062 4.55558 24.8596 4.18069 24.5959 3.90307C24.3322 3.62546 23.9731 3.46786 23.5976 3.46494C23.2221 3.46203 22.8609 3.61403 22.5935 3.88753C22.3262 4.16102 22.1745 4.53359 22.1719 4.92329L22.1621 6.39263L13.6669 6.32667L13.6767 4.85733C13.6793 4.46763 13.5327 4.09274 13.269 3.81512C13.0053 3.53751 12.6462 3.37991 12.2707 3.37699C11.8952 3.37407 11.534 3.52608 11.2667 3.79958C10.9993 4.07307 10.8476 4.44564 10.845 4.83534L10.8352 6.30468L9.41935 6.29368C8.29282 6.28494 7.20933 6.74096 6.40723 7.56144C5.60513 8.38192 5.15012 9.49965 5.14231 10.6687L5.02448 28.3008C5.01666 29.4699 5.45668 30.5946 6.24773 31.4274C7.03878 32.2603 8.11607 32.7331 9.2426 32.7418L26.2329 32.8737C27.3594 32.8825 28.4429 32.4265 29.245 31.606C30.0471 30.7855 30.5021 29.6678 30.5099 28.4987L30.6278 10.8666C30.6356 9.69753 30.1956 8.57286 29.4045 7.74001C28.6135 6.90716 27.5362 6.43436 26.4097 6.42561ZM12.1234 25.4171C11.8434 25.4149 11.5702 25.3266 11.3385 25.1634C11.1067 25.0001 10.9268 24.7692 10.8214 24.4999C10.716 24.2306 10.69 23.9349 10.7465 23.6503C10.803 23.3657 10.9396 23.105 11.139 22.901C11.3384 22.6971 11.5916 22.5591 11.8666 22.5045C12.1417 22.4499 12.4262 22.4813 12.6841 22.5945C12.9421 22.7077 13.162 22.8977 13.3159 23.1406C13.4699 23.3834 13.551 23.6682 13.5491 23.9588C13.5465 24.3485 13.3948 24.721 13.1275 24.9945C12.8601 25.268 12.4989 25.42 12.1234 25.4171ZM23.4503 25.5051L17.7868 25.4611C17.4113 25.4582 17.0522 25.3006 16.7886 25.0229C16.5249 24.7453 16.3782 24.3704 16.3808 23.9807C16.3834 23.5911 16.5351 23.2185 16.8024 22.945C17.0698 22.6715 17.431 22.5195 17.8065 22.5224L23.4699 22.5664C23.8454 22.5693 24.2045 22.7269 24.4682 23.0045C24.7319 23.2821 24.8786 23.657 24.876 24.0467C24.8734 24.4364 24.7217 24.809 24.4543 25.0825C24.187 25.356 23.8258 25.508 23.4503 25.5051ZM27.7568 16.722L7.93475 16.5681L7.97403 10.6907C7.97663 10.301 8.1283 9.92845 8.39567 9.65495C8.66303 9.38146 9.0242 9.22945 9.39971 9.23237L10.8156 9.24336L10.8057 10.7127C10.8031 11.1024 10.9498 11.4773 11.2135 11.7549C11.4772 12.0325 11.8363 12.1901 12.2118 12.193C12.5873 12.196 12.9485 12.0439 13.2158 11.7705C13.4832 11.497 13.6349 11.1244 13.6375 10.7347L13.6473 9.26535L22.1424 9.33131L22.1326 10.8007C22.13 11.1903 22.2767 11.5652 22.5404 11.8429C22.8041 12.1205 23.1632 12.2781 23.5387 12.281C23.9142 12.2839 24.2753 12.1319 24.5427 11.8584C24.8101 11.5849 24.9617 11.2123 24.9643 10.8226L24.9742 9.3533L26.39 9.36429C26.7655 9.36721 27.1246 9.52481 27.3883 9.80243C27.652 10.08 27.7987 10.4549 27.7961 10.8446L27.7568 16.722Z" fill="#195C62"/>
</svg>
