<svg width="612" height="474" viewBox="0 0 612 474" fill="none" xmlns="http://www.w3.org/2000/svg">
<g clip-path="url(#clip0_264_145)">
<path d="M495.283 301.604C495.83 301.659 496.38 301.531 496.857 301.237C497.335 300.943 497.717 300.497 497.952 299.961C498.188 299.424 498.265 298.822 498.173 298.237C498.081 297.651 497.825 297.111 497.439 296.688C497.384 296.394 497.345 296.184 497.29 295.89C497.317 295.829 497.344 295.767 497.371 295.705C497.984 294.323 498.961 293.167 500.18 292.384C501.399 291.6 502.805 291.223 504.221 291.3C505.638 291.377 507.002 291.904 508.142 292.816C509.282 293.728 510.147 294.984 510.628 296.425C512.554 302.179 515.072 307.972 515.494 313.975C515.68 316.628 515.439 319.296 514.78 321.86C520.391 310.108 523.599 297.191 524.185 283.982C524.329 280.668 524.301 277.347 524.102 274.036C523.936 271.321 523.66 268.62 523.275 265.933C521.167 251.351 515.888 237.518 507.873 225.57C503.858 222.933 500.687 219.03 498.788 214.386C498.099 212.717 497.638 210.948 497.418 209.136C497.88 209.225 498.351 209.29 498.814 209.346C498.959 209.362 499.111 209.378 499.255 209.393L499.309 209.399C499.819 209.449 500.332 209.339 500.785 209.082C501.238 208.825 501.613 208.432 501.864 207.951C502.116 207.469 502.233 206.919 502.202 206.367C502.171 205.815 501.992 205.284 501.689 204.839C501.5 204.562 501.31 204.285 501.121 204.008C500.834 203.581 500.539 203.162 500.252 202.735C500.218 202.694 500.187 202.652 500.158 202.607C499.828 202.12 499.497 201.641 499.167 201.154C499.853 200.113 500.752 199.258 501.794 198.654C505.402 196.608 510.181 198.392 512.57 201.952C514.967 205.514 515.24 210.354 514.171 214.599C513.145 218.205 511.558 221.596 509.479 224.627C509.658 224.9 509.845 225.166 510.024 225.439C513.297 230.452 516.108 235.8 518.416 241.406C518.062 235.238 519.068 229.067 521.351 223.401C523.644 218.129 527.704 213.796 531.308 209.32C535.637 203.943 543.916 206.801 544.331 213.914C544.335 213.983 544.339 214.051 544.343 214.12C543.824 214.403 543.315 214.705 542.816 215.027C542.189 215.436 541.69 216.039 541.386 216.759C541.082 217.479 540.986 218.282 541.111 219.061C541.236 219.841 541.576 220.562 542.086 221.13C542.597 221.697 543.254 222.084 543.972 222.241L544.046 222.257C543.781 224.217 543.378 226.153 542.842 228.047C541.296 233.332 538.757 238.215 535.383 242.39C532.009 246.565 527.874 249.942 523.236 252.308C522.932 252.458 522.635 252.608 522.331 252.75C524.55 260.706 525.802 268.94 526.055 277.244C526.191 282.143 525.959 287.046 525.363 291.905L525.393 291.733C526.602 286.358 529.49 281.598 533.571 278.258C539.627 273.373 547.951 271.88 554.424 268.034C555.113 267.604 555.901 267.395 556.696 267.433C557.491 267.471 558.259 267.754 558.91 268.248C559.562 268.742 560.068 269.428 560.371 270.223C560.673 271.018 560.759 271.89 560.618 272.737C560.607 272.797 560.596 272.857 560.584 272.917C559.629 273.283 558.695 273.713 557.788 274.204C557.269 274.487 556.76 274.789 556.261 275.111C555.634 275.519 555.136 276.123 554.831 276.843C554.527 277.563 554.431 278.365 554.556 279.145C554.681 279.925 555.021 280.646 555.532 281.213C556.042 281.781 556.7 282.168 557.417 282.325L557.491 282.341C557.544 282.352 557.589 282.362 557.642 282.373C555.861 286.429 553.447 290.123 550.506 293.293C546.877 297.128 542.561 300.121 537.824 302.089C533.086 304.057 528.026 304.958 522.955 304.738L522.947 304.737C521.292 311.131 519.027 317.322 516.188 323.209L494.932 322.14C494.867 321.881 494.81 321.614 494.752 321.355C496.714 321.588 498.695 321.56 500.65 321.273C499.163 319.102 497.677 316.915 496.19 314.744C496.157 314.704 496.125 314.661 496.096 314.616C495.343 313.505 494.581 312.403 493.827 311.292L493.827 311.291C493.925 308.008 494.415 304.752 495.283 301.604L495.283 301.604Z" fill="#E6E6E6"/>
<path d="M67.0023 102.974C66.4593 103.065 65.9036 102.974 65.4103 102.712C64.917 102.451 64.51 102.031 64.2445 101.512C63.979 100.992 63.8677 100.396 63.9258 99.8059C63.9839 99.2154 64.2086 98.6586 64.5693 98.2107C64.6074 97.9143 64.6348 97.7014 64.6729 97.405C64.6426 97.345 64.6121 97.2851 64.5815 97.2253C63.8905 95.8868 62.849 94.7988 61.5877 94.0979C60.3264 93.397 58.9016 93.1145 57.4922 93.2859C56.0828 93.4573 54.7517 94.0749 53.6661 95.0612C52.5805 96.0475 51.7888 97.3585 51.3904 98.8294C49.7975 104.701 47.616 110.651 47.5372 116.67C47.5035 119.331 47.897 121.977 48.7004 124.492C42.4283 113.138 38.4887 100.459 37.1486 87.3152C36.8155 84.0165 36.6533 80.7003 36.6628 77.382C36.6729 74.6615 36.7935 71.9473 37.0247 69.2395C38.295 54.5452 42.7725 40.3862 50.0896 27.9252C53.9463 25.0257 56.8878 20.9183 58.5179 16.1566C59.1096 14.4442 59.4689 12.6483 59.5846 10.8247C59.1287 10.9446 58.6627 11.0408 58.2035 11.1279C58.0603 11.153 57.9095 11.179 57.7662 11.2042L57.7121 11.2132C57.2063 11.2976 56.6887 11.2222 56.2216 10.9961C55.7545 10.7699 55.3579 10.4027 55.0794 9.93866C54.8009 9.47458 54.6525 8.9334 54.6521 8.38029C54.6516 7.82718 54.7991 7.28572 55.0767 6.82109C55.2497 6.53203 55.4228 6.24309 55.596 5.95427C55.8581 5.50891 56.1286 5.07087 56.3906 4.62558C56.4217 4.58254 56.4505 4.53761 56.4768 4.49102C56.7786 3.98296 57.0811 3.48315 57.3829 2.97509C56.6388 1.98208 55.6925 1.18825 54.6178 0.655468C50.8997 -1.14597 46.2317 0.953052 44.0508 4.66662C41.8623 8.38101 41.8671 13.2306 43.1762 17.3961C44.4067 20.9269 46.1844 24.2056 48.433 27.0918C48.2698 27.3763 48.0982 27.6534 47.9351 27.938C44.9547 33.1603 42.455 38.6857 40.472 44.435C40.473 38.2551 39.1163 32.1633 36.5136 26.6607C33.9229 21.5518 29.6228 17.498 25.7699 13.2711C21.142 8.19379 13.0427 11.5991 13.0347 18.7258C13.0346 18.7948 13.0347 18.8638 13.0349 18.9327C13.5689 19.1803 14.0942 19.448 14.6108 19.7358C15.2601 20.1017 15.7921 20.6711 16.1369 21.3693C16.4817 22.0675 16.6233 22.862 16.5431 23.6487C16.4629 24.4353 16.1647 25.1775 15.6876 25.7779C15.2105 26.3783 14.5766 26.809 13.8691 27.0134L13.7967 27.0344C14.1731 28.9729 14.6854 30.8777 15.3291 32.7323C17.174 37.9042 19.9876 42.6085 23.5937 46.5502C27.1997 50.4919 31.5204 53.586 36.2848 55.6386C36.597 55.7677 36.9017 55.8977 37.213 56.0186C35.4535 64.1075 34.6746 72.4093 34.8962 80.7153C35.0414 85.6138 35.5528 90.4917 36.4256 95.3012L36.3856 95.1318C34.8717 89.8476 31.7167 85.29 27.4534 82.2285C21.129 77.757 12.7356 76.8233 6.05533 73.4168C5.3432 73.0332 4.54442 72.8777 3.75318 72.9686C2.96195 73.0595 2.21127 73.393 1.58969 73.9298C0.968105 74.4666 0.501538 75.1844 0.245021 75.9983C-0.0114962 76.8123 -0.0472684 77.6886 0.141928 78.5238C0.15639 78.5831 0.171003 78.6424 0.185757 78.7016C1.16079 79.0028 2.11751 79.3694 3.05036 79.7992C3.58438 80.0468 4.10965 80.3145 4.62619 80.6022C5.27556 80.9682 5.80749 81.5376 6.1523 82.2358C6.4971 82.934 6.63869 83.7285 6.55853 84.5152C6.47836 85.3019 6.18018 86.044 5.70304 86.6444C5.22589 87.2448 4.59205 87.6755 3.88456 87.88L3.81205 87.9008C3.75982 87.9153 3.71513 87.9289 3.66298 87.9433C5.6726 91.8722 8.29303 95.3979 11.4095 98.3661C15.2511 101.951 19.7298 104.65 24.5709 106.298C29.4121 107.945 34.5137 108.507 39.5629 107.949L39.5705 107.948C41.5876 114.219 44.2023 120.247 47.3725 125.934L68.5265 123.447C68.5768 123.184 68.6186 122.914 68.6613 122.652C66.7166 123.015 64.7381 123.12 62.77 122.963C64.13 120.697 65.4883 118.415 66.8484 116.15C66.8795 116.107 66.9082 116.062 66.9346 116.015C67.6235 114.856 68.3208 113.705 69.0097 112.546L69.01 112.545C68.7238 109.275 68.0492 106.058 67.0029 102.974L67.0023 102.974Z" fill="#E6E6E6"/>
<path d="M359.263 94.5019C360.31 94.8132 361.281 95.3689 362.108 96.1297C362.935 96.8905 363.597 97.8379 364.049 98.9053C364.5 99.9727 364.729 101.134 364.72 102.308C364.711 103.481 364.465 104.638 363.997 105.698L375.349 119.336L369.362 128.813L353.581 109.309C351.987 108.342 350.775 106.777 350.177 104.91C349.579 103.043 349.636 101.003 350.336 99.1782C351.037 97.3531 352.332 95.8689 353.977 95.0071C355.622 94.1452 357.503 93.9655 359.263 94.5019Z" fill="#A0616A"/>
<path d="M465.537 127.992C464.513 126.192 463.171 124.628 461.587 123.39C460.003 122.152 458.209 121.263 456.306 120.776C454.404 120.289 452.432 120.213 450.502 120.551C448.572 120.89 446.724 121.636 445.062 122.749L407.728 147.736L367.457 110.743L357.437 120.824L401.926 183.201L459.748 150.626C458.398 151.387 467.167 130.86 465.537 127.992Z" fill="#CCCCCC"/>
<path d="M391.578 211.077C391.582 231.002 387.953 250.734 380.899 269.143C373.844 287.553 363.503 304.28 350.465 318.37C337.427 332.46 321.948 343.635 304.913 351.259C287.877 358.882 269.619 362.804 251.18 362.8C173.642 362.8 110.783 294.87 110.783 211.077C110.769 194.778 113.187 178.583 117.943 163.115C127.28 132.907 145.169 106.636 169.078 88.0155C192.988 69.3953 221.709 59.3686 251.18 59.3535C276.598 59.3439 301.54 66.7935 323.345 80.9071C345.15 95.0206 363 115.268 374.988 139.489C377.96 145.464 380.553 151.651 382.749 158.007C383.053 158.892 383.349 159.777 383.638 160.671V160.679C384.925 164.607 386.058 168.608 387.039 172.682C390.062 185.218 391.588 198.122 391.578 211.077Z" fill="#3F3D56"/>
<path d="M235.82 108.711C229.51 105.024 222.505 102.942 215.338 102.625C208.171 102.309 201.032 103.765 194.465 106.882C188.683 109.602 182.594 114.48 180.666 123.289C188.467 118.314 198.565 126.175 200.573 138.786L200.104 138.926C199.044 147.66 201.411 157.17 205.993 162.587C206.595 156.961 210.018 153.132 213.385 150.74C216.752 148.348 220.477 146.611 223.046 142.499C226.093 137.625 226.867 130.502 228.077 124.004C229.287 117.506 231.583 110.522 235.82 108.711Z" fill="white"/>
<path d="M192.151 183.042C189.99 186.548 187.104 188.748 184.515 191.487C181.933 194.235 179.476 197.944 178.961 202.707C178.634 205.758 179.141 208.86 179.07 211.945C179 215.03 178.049 218.503 176.107 219.27C173.041 220.467 170.701 214.313 167.55 213.883C165.046 213.546 162.792 217.803 163.518 221.495C164.243 225.187 167.652 226.822 169.609 224.411C171.38 227.623 170.132 233.447 167.472 234.434C167.191 236.457 166.911 238.471 166.638 240.494C159.914 235.411 153.12 230.244 147.403 222.801C141.044 214.594 137.101 204.52 136.078 193.873C135.337 185.317 136.436 175.531 132.802 168.948C129.892 163.68 124.9 162.517 120.408 162.846C119.589 162.905 118.762 163.006 117.943 163.115C120.593 154.516 123.958 146.193 127.997 138.25C128.911 137.825 129.76 137.254 130.516 136.555C134.697 132.72 136.553 124.957 139.946 119.587C140.165 119.242 140.391 118.905 140.625 118.576C144.096 113.679 148.745 111.158 153.237 108.815C163.182 103.598 173.416 98.3125 183.914 99.0374L180.927 99.3493C177.44 109.903 173.951 120.456 170.46 131.009C169.929 132.627 169.394 134.248 168.853 135.873C166.872 141.874 164.828 148.263 165.132 154.981C165.312 158.96 166.591 163.208 169.024 164.573C171.294 165.838 173.774 164.287 175.966 162.753C176.894 162.112 177.815 161.471 178.743 160.822C182.074 158.504 185.763 156.127 189.281 157.678C192.502 159.095 194.881 163.823 195.333 168.923C195.748 173.88 194.629 178.846 192.151 183.042Z" fill="white"/>
<path d="M211.959 255.091C202.232 248.619 192.505 242.146 182.778 235.674L182.943 235.214C176.895 237.704 174.384 249.322 175.383 258.822C176.383 268.323 179.772 276.816 181.484 286.074C183.793 298.742 182.921 311.847 178.961 324.029C191.751 308.519 203.071 291.663 212.75 273.713C214.102 271.45 215.132 268.982 215.806 266.389C216.424 263.63 216.329 260.314 215.092 258.102C214.295 256.833 213.219 255.798 211.959 255.091Z" fill="white"/>
<path d="M173.569 137.341C172.536 139.85 172.139 143.197 173.076 145.794C174.034 148.446 176.057 149.644 177.921 150.642L183.295 153.521C185.083 154.479 187.011 155.446 188.833 154.658C191.032 153.708 192.556 149.983 192.162 146.525C191.742 142.846 189.596 140.314 187.611 138.159C184.833 135.143 182.055 132.126 179.278 129.11L177.712 131.182C176.019 132.967 174.618 135.049 173.569 137.341Z" fill="white"/>
<path d="M362.765 176.678C365.183 177.293 367.601 177.908 370.019 178.523C369.598 187.349 365.55 195.517 360.121 198.475C357.859 199.706 355.34 200.161 353.468 202.462C351.775 204.552 350.917 207.806 350.13 210.916C348.749 216.345 347.368 221.773 345.988 227.201C344.506 233.051 342.603 239.55 338.75 241.657C335.442 243.469 331.66 241.253 329.117 237.535C326.574 233.818 325.022 228.82 323.516 223.948C323.61 229.258 321.325 234.467 318.088 236.313C314.843 238.159 310.896 236.49 308.728 232.368C307.168 229.41 306.521 225.507 304.992 222.506C303.463 219.506 300.257 217.786 298.588 220.601C297.488 222.473 297.629 225.339 297.083 227.716C296.232 231.407 293.659 233.725 291.108 233.928C288.565 234.13 286.085 232.545 283.956 230.396C279.564 225.945 276.327 218.882 275.071 211.034C274.518 207.536 274.362 203.726 275.321 200.447C276.28 197.169 278.597 194.64 280.898 195.264C282.411 191.808 279.424 187.222 276.733 187.627C274.034 188.031 271.92 191.159 269.705 193.561C267.498 195.963 264.409 197.708 262.186 195.323C262.202 197.539 260.532 199.006 259.089 198.821C257.654 198.644 256.375 197.396 255.057 196.511C249.964 193.08 243.498 195.356 239.878 201.847C242.14 191.445 245.455 179.51 252.405 177.065C255.244 176.062 258.341 176.888 261.024 175.152C265.774 172.075 266.733 160.452 262.631 155.655C263.153 160.19 263.052 165.484 260.837 168.586C258.622 171.688 253.973 169.664 254.254 165.079C253.614 168.24 250.432 168.72 248.965 166.293C247.491 163.865 247.616 159.895 248.661 156.996C249.706 154.096 251.485 152.014 253.208 150.016C256.913 145.726 260.673 141.385 264.963 138.688C269.261 135.99 274.221 135.08 278.527 137.761C280.797 139.177 282.793 141.537 285.11 142.784C287.426 144.04 290.367 143.88 291.904 140.947C293.627 137.676 292.816 132.821 293.456 128.733C294.602 121.509 301.287 118.129 304.992 122.9C302.223 122.133 299.36 125.673 299.017 129.964C298.666 134.254 300.671 138.587 303.354 139.885C307.862 142.042 312.277 136.614 315.685 131.59C319.242 126.331 322.804 121.074 326.371 115.82C326.941 114.925 327.58 114.085 328.282 113.308C329.399 112.131 330.889 111.457 332.448 111.423C334.008 111.388 335.522 111.996 336.683 113.122C340.286 116.3 341.979 122.816 344.935 127.3C349.225 133.816 355.644 135.4 361.619 136.665C366.073 137.6 370.529 138.542 374.988 139.488C377.96 145.464 380.553 151.651 382.749 158.007C375.198 161.471 368.233 167.953 362.765 176.678Z" fill="white"/>
<path d="M377.164 278.096C373.822 285.429 369.936 292.456 365.542 299.11C362.734 297.812 359.716 300.13 357.087 302.304C354.342 304.58 351.042 306.797 348.226 304.724C345.348 302.599 344.42 296.657 345.333 291.945C346.245 287.242 348.523 283.499 350.73 279.942C353.07 276.166 355.574 272.246 358.826 270.78C362.087 269.313 366.275 271.387 367.227 276.393L369.536 276.309C368.241 274.387 368.92 270.409 370.659 269.709C372.663 268.892 374.403 271.867 375.588 274.497C376.119 275.685 376.657 276.882 377.164 278.096Z" fill="white"/>
<path d="M288.74 242.492C283.778 242.83 279.847 236.228 277.235 229.733C274.623 223.238 272.239 215.811 267.761 212.505C265.203 210.616 262.286 210.357 259.511 209.441C256.736 208.526 253.831 206.632 252.504 202.775L249.356 201.401C245.199 203.927 240.987 206.499 237.405 210.61C233.387 215.222 230.884 221.135 230.283 227.436C229.681 234.245 231.902 241.838 236.051 244.395C239.33 246.417 243.147 245.143 246.468 246.993C250.617 249.305 253.08 256.02 254.012 262.651C254.945 269.282 254.709 276.173 255.376 282.879C256.043 289.585 257.882 296.562 261.687 299.999C266.448 304.299 273.435 300.726 275.571 292.898C276.619 289.058 276.583 284.725 277.367 280.739C278.747 273.719 282.472 268.511 285.426 262.753C288.38 256.995 290.705 249.175 288.74 242.492Z" fill="white"/>
<path d="M239.703 173.516C240.166 173.977 240.597 174.472 240.995 174.999C241.407 175.765 241.617 176.639 241.603 177.526C241.589 178.412 241.351 179.277 240.916 180.029C241.514 179.992 242.098 179.821 242.631 179.528C243.165 179.235 243.637 178.825 244.017 178.325C244.922 177.211 245.719 175.998 246.394 174.706C246.9 173.814 247.439 172.608 247.095 171.549C246.861 170.826 246.307 170.517 245.918 169.974C245.302 169.112 245.149 167.743 244.83 166.56C244.142 164.005 242.492 162.126 240.702 161.858L240.95 161.909C240.202 162.186 239.68 163.47 239.845 164.625C239.996 165.677 240.621 166.55 240.559 167.623C240.47 169.165 239.043 169.889 238.955 171.432C238.941 172.206 239.21 172.955 239.703 173.516Z" fill="white"/>
<path d="M231.2 147.302C231.208 147.299 231.215 147.299 231.223 147.297C231.375 147.147 231.516 146.984 231.645 146.81L231.2 147.302Z" fill="#E6E6E6"/>
<path d="M232.689 154.542C233.786 153.78 234.399 151.671 234.036 149.906C233.675 148.152 232.399 146.973 231.223 147.297C230.881 147.671 230.457 147.945 229.991 148.093C229.525 148.242 229.031 148.26 228.556 148.145C227.829 147.943 227.03 147.421 226.399 148.014C226.038 148.456 225.785 148.989 225.664 149.565C225.43 150.339 225.197 151.114 224.963 151.889C224.852 152.166 224.823 152.474 224.88 152.77C224.925 152.888 224.997 152.993 225.09 153.072C225.183 153.152 225.293 153.204 225.41 153.225C226.811 153.671 228.213 154.118 229.614 154.564C230.636 154.89 231.738 155.203 232.689 154.542Z" fill="white"/>
<path d="M338.488 254.51C337.84 253.364 337.192 252.218 336.544 251.072C335.908 249.744 335.038 248.564 333.983 247.597C333.751 247.387 333.483 247.229 333.194 247.133C332.905 247.037 332.601 247.004 332.3 247.037C331.999 247.069 331.707 247.166 331.441 247.323C331.175 247.479 330.941 247.691 330.752 247.947L330.831 248.601C332.308 250.603 333.87 252.827 334.245 255.799C334.392 256.97 334.341 258.182 334.471 259.359C334.6 260.535 334.968 261.755 335.671 262.262C336.691 262.999 337.889 261.913 338.615 260.588C339.264 259.5 339.555 258.207 339.441 256.918C339.279 256.053 338.955 255.234 338.488 254.51Z" fill="white"/>
<path d="M367.319 210.736C367.506 209.409 367.694 208.081 367.881 206.753C368.185 205.295 368.223 203.787 367.992 202.313C367.94 201.991 367.829 201.683 367.665 201.408C367.501 201.134 367.288 200.897 367.038 200.712C366.789 200.528 366.507 200.399 366.211 200.334C365.915 200.268 365.609 200.268 365.312 200.332L364.983 200.888C364.919 203.447 364.789 206.236 363.305 208.769C362.72 209.768 361.959 210.66 361.357 211.65C360.755 212.64 360.309 213.83 360.545 214.707C360.886 215.98 362.45 215.983 363.795 215.475C364.94 215.094 365.933 214.307 366.614 213.242C367.005 212.468 367.245 211.615 367.319 210.736Z" fill="#E6E6E6"/>
<path d="M348.65 256.002C348.967 255.018 348.509 253.89 348.413 252.802C348.367 251.397 348.711 250.01 349.402 248.819C350.088 247.696 350.608 246.464 350.943 245.168C351.085 244.577 351.059 243.954 350.869 243.379C350.655 242.859 350.136 242.621 349.838 243.033L350.475 243.477C349.614 243.311 348.73 243.357 347.888 243.613C347.408 243.811 346.979 244.132 346.637 244.548C346.296 244.964 346.052 245.462 345.927 246.001C345.822 246.842 345.65 247.671 345.413 248.48C345.033 249.325 344.296 249.606 343.834 250.347C343.518 251.004 343.359 251.736 343.37 252.477C343.382 253.217 343.563 253.943 343.899 254.588C344.48 255.644 345.403 256.429 346.49 256.79C347.269 257.092 348.294 257.108 348.65 256.002Z" fill="white"/>
<path d="M366.747 261.903C367.029 262.694 367.406 263.442 367.869 264.127C368.735 265.07 369.913 264.49 370.964 264.261C371.918 264.098 372.894 264.218 373.791 264.606C374.687 264.994 375.469 265.638 376.054 266.468C375.647 264.271 374.757 262.212 373.46 260.463C372.164 258.715 370.498 257.328 368.602 256.42C366.124 255.329 363.515 255.223 360.938 255.125L360.493 255.248C361.627 258.816 365.189 258.736 366.747 261.903Z" fill="white"/>
<path d="M290.098 269.2L290.104 269.216C290.147 269.126 290.19 269.036 290.233 268.946L290.098 269.2Z" fill="#E6E6E6"/>
<path d="M287.352 274.943C286.753 276.118 286.239 277.34 285.812 278.599C285.247 280.639 284.873 282.735 284.696 284.856C284.556 286.062 284.513 287.602 285.212 288.189C285.413 288.333 285.655 288.393 285.894 288.358C286.133 288.323 286.351 288.195 286.509 287.999C286.898 287.555 287.215 287.044 287.45 286.488C288.824 283.931 289.89 281.195 290.624 278.346C291.293 275.346 291.287 271.813 290.104 269.216C289.187 271.125 288.27 273.034 287.352 274.943Z" fill="white"/>
<path d="M260.866 121.942C261.303 122.403 261.854 122.715 262.452 122.842C263.051 122.968 263.671 122.902 264.235 122.652C265.404 122.1 266.476 121.335 267.405 120.39C268.174 119.775 268.826 119.006 269.326 118.125C269.602 117.598 269.778 117.018 269.846 116.417C269.913 115.817 269.87 115.208 269.719 114.625C269.285 113.253 268.184 112.793 267.212 112.482C265.656 111.984 264.101 111.485 262.545 110.987L263.671 109.891C262.513 109.219 261.232 110.465 260.508 112.008C260.044 113.016 259.721 114.092 259.548 115.201C259.161 117.623 259.54 120.507 260.866 121.942Z" fill="#E6E6E6"/>
<path d="M288.33 111.979C288.768 112.501 289.374 112.823 290.024 112.881C290.675 112.938 291.321 112.725 291.832 112.287C292.272 111.93 292.637 111.477 292.904 110.957C293.171 110.438 293.333 109.863 293.381 109.271C293.491 107.949 292.886 106.479 292.022 106.365L292.22 105.127C290.555 104.802 288.507 104.737 287.615 106.922C287.314 107.758 287.222 108.666 287.347 109.553C287.473 110.441 287.811 111.277 288.33 111.979Z" fill="#E6E6E6"/>
<path d="M284.661 46.1434C274.903 44.9539 265.107 48.0022 257.429 54.6178C249.75 61.2334 244.818 70.8743 243.717 81.4197C241.425 103.379 252.13 151.065 271.649 170.805C280.839 132.985 313.043 110.552 317.304 90.3899C321.857 68.8458 304.981 48.6205 284.661 46.1434Z" fill="#195C62"/>
<path d="M277.912 94.9619C284.581 94.9619 289.988 89.1194 289.988 81.9122C289.988 74.705 284.581 68.8624 277.912 68.8624C271.243 68.8624 265.836 74.705 265.836 81.9122C265.836 89.1194 271.243 94.9619 277.912 94.9619Z" fill="white"/>
<path d="M265.215 189.621C269.583 189.621 273.124 185.794 273.124 181.074C273.124 176.353 269.583 172.526 265.215 172.526C260.847 172.526 257.306 176.353 257.306 181.074C257.306 185.794 260.847 189.621 265.215 189.621Z" fill="#195C62"/>
<path opacity="0.2" d="M287.903 72.5627C289.263 73.4454 290.448 74.6087 291.391 75.9863C292.334 77.3639 293.017 78.9287 293.401 80.5915C293.784 82.2543 293.861 83.9825 293.627 85.6773C293.392 87.3722 292.851 89.0005 292.034 90.4694C291.218 91.9383 290.141 93.219 288.866 94.2383C287.592 95.2576 286.144 95.9956 284.605 96.4101C281.497 97.2473 278.209 96.7162 275.464 94.9336C278.263 95.6065 281.192 95.1809 283.727 93.7332C286.263 92.2854 288.238 89.9099 289.301 87.0318C290.363 84.1538 290.443 80.9611 289.526 78.0251C288.609 75.0892 286.756 72.6017 284.297 71.0078C285.569 71.3125 286.787 71.8375 287.903 72.5627Z" fill="#231F20"/>
<path opacity="0.2" d="M317.351 90.4321C313.09 110.594 280.886 133.027 271.696 170.847C269.86 168.973 268.156 166.955 266.595 164.809C276.922 129.259 307.122 107.657 311.239 88.1769C314.924 70.7416 304.573 54.1717 289.721 47.1721C307.7 52.0561 321.524 70.689 317.351 90.4321Z" fill="#231F20"/>
<path d="M171.5 97.0615C164.172 96.1682 156.816 98.4574 151.049 103.426C145.283 108.394 141.579 115.634 140.753 123.553C139.031 140.044 147.071 175.854 161.728 190.678C168.63 162.277 192.814 145.43 196.014 130.289C199.433 114.11 186.76 98.9217 171.5 97.0615Z" fill="#195C62"/>
<path d="M166.432 133.723C171.44 133.723 175.5 129.335 175.5 123.923C175.5 118.51 171.44 114.123 166.432 114.123C161.423 114.123 157.363 118.51 157.363 123.923C157.363 129.335 161.423 133.723 166.432 133.723Z" fill="white"/>
<path d="M156.897 204.808C160.177 204.808 162.836 201.935 162.836 198.39C162.836 194.845 160.177 191.971 156.897 191.971C153.616 191.971 150.957 194.845 150.957 198.39C150.957 201.935 153.616 204.808 156.897 204.808Z" fill="#195C62"/>
<path opacity="0.2" d="M173.935 116.902C174.956 117.564 175.846 118.438 176.554 119.473C177.262 120.507 177.775 121.682 178.063 122.931C178.351 124.18 178.409 125.477 178.233 126.75C178.057 128.023 177.651 129.246 177.037 130.349C176.424 131.452 175.615 132.414 174.658 133.179C173.701 133.945 172.613 134.499 171.458 134.81C170.302 135.121 169.102 135.184 167.924 134.993C166.746 134.803 165.614 134.364 164.594 133.701C166.696 134.207 168.895 133.887 170.799 132.8C172.703 131.713 174.186 129.929 174.984 127.767C175.782 125.606 175.842 123.208 175.154 121.004C174.465 118.799 173.073 116.931 171.226 115.734C172.182 115.963 173.096 116.357 173.935 116.902Z" fill="#231F20"/>
<path opacity="0.2" d="M196.049 130.321C192.849 145.462 168.665 162.308 161.764 190.71C160.385 189.302 159.105 187.787 157.933 186.175C165.689 159.478 188.368 143.256 191.459 128.627C194.227 115.534 186.453 103.09 175.3 97.834C188.801 101.502 199.183 115.494 196.049 130.321Z" fill="#231F20"/>
<path d="M455.412 452.068H445.455L440.718 410.565L455.414 410.566L455.412 452.068Z" fill="#A0616A"/>
<path d="M460.768 472.499H453.703L452.442 465.29L449.212 472.499H430.473C429.575 472.499 428.701 472.188 427.977 471.613C427.254 471.038 426.719 470.228 426.452 469.301C426.184 468.374 426.198 467.38 426.491 466.462C426.784 465.545 427.341 464.752 428.08 464.201L443.044 453.032V445.745L458.783 446.76L460.768 472.499Z" fill="#2F2E41"/>
<path d="M416.846 452.068H406.89L402.153 410.565L416.849 410.566L416.846 452.068Z" fill="#A0616A"/>
<path d="M422.203 472.499H415.138L413.877 465.29L410.647 472.499H391.908C391.01 472.499 390.135 472.188 389.412 471.613C388.688 471.038 388.154 470.228 387.887 469.301C387.619 468.374 387.633 467.38 387.926 466.462C388.219 465.545 388.776 464.752 389.515 464.201L404.479 453.032V445.745L420.218 446.76L422.203 472.499Z" fill="#2F2E41"/>
<path d="M379.02 342.491C380.925 345.58 401.654 430.487 401.654 430.487L420.034 432.752L417.852 411.389L414.517 373.584L409.354 348.349C409.354 348.349 427.588 303.502 428.741 299.93L429.56 297.366L435.258 353.24C435.934 355.235 436.229 357.357 436.125 359.479C435.953 362.969 439.192 415.476 439.192 415.476L440.75 434.306L456.497 436.67L462.886 404.089C468.221 393.505 465.163 355.896 462.981 352.395C460.799 348.895 461.666 324.515 461.666 324.515C464.452 323.456 481.065 262.237 472.756 262.598C473.289 259.335 473.708 256.421 473.708 256.421L459.284 243.85L423.187 233.709L414.08 228.984C414.08 228.984 397.814 261.486 397.976 263.103C398.201 265.15 397.767 267.218 396.747 268.961L380.325 328.356C380.325 328.356 377.096 339.372 379.02 342.491Z" fill="#2F2E41"/>
<path d="M469.709 129.955L463.966 116.779L444.421 117.591L438.046 131.298C438.046 131.298 419.826 154.815 419.236 162.462C418.495 172.08 424.659 219.216 418.495 216.16C418.495 216.16 403.963 234.594 412.562 234.594C421.161 234.594 460.058 260.981 462.61 263.949C465.162 266.916 476.556 268.84 475.601 262.645C474.645 256.45 469.709 222.946 469.709 222.946L483.072 170.263C486.918 158.889 488.115 146.131 479.421 138.49L469.709 129.955Z" fill="#CCCCCC"/>
<path d="M397.311 91.1742C394.697 90.0527 391.904 89.4987 389.091 89.5437C386.279 89.5888 383.502 90.2321 380.92 91.4368C378.337 92.6415 376 94.3841 374.04 96.5651C372.081 98.7461 370.539 101.323 369.501 104.148C365.137 116.03 364.413 144.404 372.535 158.625C382.978 139.022 404.105 131.783 409.316 121.228C414.885 109.949 408.306 95.8906 397.311 91.1742Z" fill="#195C62"/>
<path d="M388.519 117.582C392.377 117.582 395.504 114.202 395.504 110.033C395.504 105.864 392.377 102.484 388.519 102.484C384.661 102.484 381.534 105.864 381.534 110.033C381.534 114.202 384.661 117.582 388.519 117.582Z" fill="white"/>
<path d="M367.501 168.246C370.028 168.246 372.077 166.032 372.077 163.301C372.077 160.57 370.028 158.357 367.501 158.357C364.975 158.357 362.926 160.57 362.926 163.301C362.926 166.032 364.975 168.246 367.501 168.246Z" fill="#195C62"/>
<path opacity="0.2" d="M395.41 106.453C396.689 107.899 397.386 109.835 397.345 111.835C397.305 113.835 396.532 115.736 395.195 117.121C393.858 118.505 392.068 119.26 390.217 119.218C388.366 119.177 386.606 118.343 385.324 116.9C386.791 117.734 388.486 117.977 390.105 117.585C391.723 117.193 393.159 116.191 394.157 114.759C395.154 113.327 395.647 111.558 395.548 109.768C395.449 107.979 394.763 106.287 393.615 104.994C394.282 105.372 394.888 105.865 395.41 106.453Z" fill="#231F20"/>
<path opacity="0.2" d="M409.337 121.259C404.126 131.814 382.999 139.053 372.556 158.656C371.794 157.309 371.126 155.902 370.557 154.448C381.315 136.299 401.207 129.196 406.242 118.997C410.748 109.87 407.298 98.9223 399.991 92.5785C409.34 98.2544 414.44 110.923 409.337 121.259Z" fill="#231F20"/>
<path d="M365.439 161.599C366.503 161.362 367.602 161.38 368.658 161.651C369.715 161.923 370.703 162.442 371.554 163.171C372.405 163.9 373.098 164.822 373.583 165.871C374.069 166.921 374.336 168.073 374.365 169.246L390.212 175.82L388.864 187.202L366.605 177.578C364.778 177.501 363.041 176.701 361.723 175.332C360.405 173.962 359.598 172.118 359.454 170.148C359.311 168.178 359.841 166.22 360.944 164.644C362.047 163.069 363.646 161.985 365.439 161.599Z" fill="#A0616A"/>
<path d="M476.17 138.144C474.502 137.043 472.648 136.309 470.717 135.984C468.785 135.659 466.813 135.749 464.914 136.249C463.014 136.75 461.225 137.65 459.649 138.9C458.072 140.149 456.739 141.722 455.727 143.529L432.98 184.123L381.55 170.948L376.864 184.849L442.726 218.564L476.082 161.149C481.076 153.565 483.522 142.995 476.17 138.144Z" fill="#CCCCCC"/>
<path d="M477.019 88.3956C477.021 92.3081 476.133 96.1611 474.435 99.6164C472.737 103.072 470.28 106.024 467.279 108.213C464.279 110.403 460.827 111.763 457.227 112.174C453.626 112.585 449.988 112.035 446.63 110.572C443.272 109.109 440.298 106.777 437.969 103.782C435.64 100.786 434.027 97.2191 433.271 93.3928C432.515 89.5665 432.641 85.5982 433.635 81.8364C434.63 78.0745 436.465 74.6341 438.977 71.8172L439.083 71.7025C439.26 71.5017 439.437 71.3009 439.623 71.1097C439.624 71.1097 439.625 71.1095 439.626 71.109C439.627 71.1085 439.628 71.1078 439.629 71.1069C439.63 71.106 439.631 71.1049 439.631 71.1038C439.632 71.1026 439.632 71.1014 439.632 71.1001C439.862 70.8706 440.092 70.6412 440.331 70.4213C443.527 67.3933 447.462 65.4249 451.667 64.7517C455.871 64.0785 460.166 64.7291 464.037 66.6257C467.909 68.5222 471.192 71.5842 473.494 75.4452C475.797 79.3061 477.021 83.8024 477.019 88.3956Z" fill="#2F2E41"/>
<path d="M449.453 113.969C459.696 113.969 467.999 104.995 467.999 93.9258C467.999 82.8565 459.696 73.8831 449.453 73.8831C439.21 73.8831 430.906 82.8565 430.906 93.9258C430.906 104.995 439.21 113.969 449.453 113.969Z" fill="#9E616A"/>
<path d="M469.148 99.6417L466.075 99.0551C464.358 98.7178 462.777 97.8221 461.544 96.4876C460.31 95.1531 459.484 93.4435 459.174 91.5875L456.175 97.0181L456.044 97.0651C448.9 99.6284 441.467 98.8618 433.325 94.7245C430.997 93.5312 428.739 92.1856 426.563 90.6953L426.402 90.5869L426.389 90.383C425.974 83.8629 427.328 78.4159 430.202 75.0453C431.306 73.7771 432.645 72.7753 434.132 72.1055C435.619 71.4357 437.22 71.113 438.83 71.1585C438.945 71.1261 439.05 71.0633 439.137 70.9757C439.178 70.9429 439.219 70.9104 439.26 70.8795V70.8458L439.473 70.7374C439.931 70.505 440.398 70.2823 440.864 70.0788C444.534 68.5435 448.53 68.1584 452.393 68.9677C456.257 69.7769 459.831 71.7477 462.704 74.6535C468.417 80.5475 471.037 90.4386 469.224 99.2672L469.148 99.6417Z" fill="#2F2E41"/>
<path d="M508.266 116.718C501.955 113.198 510.072 100.421 508.441 92.9507C506.81 85.4804 495.064 83.0777 494.316 75.445C493.568 67.8122 491.807 59.9399 487.147 54.1481C484.168 50.4472 479.78 47.715 475.262 48.1786C473.733 48.3354 472.254 48.8465 470.924 49.6769C469.595 50.5074 468.447 51.6377 467.558 52.9909C466.669 54.3442 466.061 55.8885 465.774 57.5188C465.487 59.1491 465.529 60.827 465.896 62.4382C464.61 60.4684 461.281 60.8954 460.457 63.1359C459.724 65.1278 461.343 67.5405 463.247 67.7167C465.739 71.0428 468.593 74.5727 472.498 75.2436C473.12 75.398 473.766 75.3976 474.388 75.2425C475.01 75.0873 475.591 74.7815 476.088 74.3481C477.007 73.3948 477.078 71.489 475.988 70.7766C480.895 72.883 483.772 78.6162 484.5 84.2673C485.228 89.9184 484.221 95.6362 483.557 101.297C482.893 106.957 482.607 112.911 484.661 118.168C487.087 124.378 492.674 128.829 498.771 130.257C504.867 131.684 511.36 130.289 516.879 127.146C522.398 124.002 526.999 119.204 530.759 113.824C524.283 118.793 515.324 120.655 508.266 116.718Z" fill="#2F2E41"/>
<path d="M468.358 99.0845C468.358 99.0845 462.864 76.9227 439.313 71.8076C439.287 71.7982 439.198 71.7599 439.083 71.7026C439.012 71.6548 438.924 71.6069 438.835 71.5592C439.101 71.3966 439.357 71.2533 439.623 71.1097L439.626 71.109L439.629 71.107L439.631 71.1038L439.632 71.1002C439.862 70.8707 440.092 70.6413 440.331 70.4214L441.003 70.4501C441.003 70.4501 464.634 66.4059 468.358 99.0845Z" fill="#195C62"/>
<path opacity="0.2" d="M456.057 170.196L442.756 186.85L420.778 179.836L444.738 191.768L456.057 170.196Z" fill="black"/>
<path d="M535.896 473.754L331.39 474C331.156 473.999 330.932 473.898 330.767 473.72C330.602 473.541 330.509 473.298 330.509 473.046C330.509 472.793 330.602 472.551 330.767 472.372C330.932 472.193 331.156 472.092 331.39 472.091L535.896 471.845C536.13 471.845 536.355 471.946 536.52 472.125C536.686 472.304 536.779 472.546 536.779 472.799C536.779 473.052 536.686 473.295 536.52 473.474C536.355 473.653 536.13 473.754 535.896 473.754Z" fill="#CACACA"/>
<path d="M544.873 325.451C535.296 325.451 524.801 325.06 513.385 324.278C454.341 320.226 377.86 306.139 298.032 284.612C218.204 263.085 144.565 236.689 90.681 210.289C64.4325 197.428 44.287 185.254 30.8047 174.105C16.5303 162.302 10.2866 152.013 12.246 143.527C16.064 126.994 49.87 123.376 77.5575 123.253L77.5669 125.658C39.5446 125.827 17.1134 132.38 14.4051 144.109C10.9551 159.048 39.0916 182.372 91.5997 208.099C145.365 234.441 218.869 260.786 298.571 282.28C378.272 303.772 454.612 317.835 513.526 321.878C571.062 325.828 606.041 319.524 609.49 304.584C612.354 292.18 593.472 273.908 556.323 253.132L557.345 250.997C584.339 266.093 615.672 287.745 611.649 305.167C609.689 313.653 599.705 319.565 581.973 322.737C571.864 324.545 559.449 325.451 544.873 325.451Z" fill="#195C62"/>
</g>
<defs>
<clipPath id="clip0_264_145">
<rect width="612" height="474" fill="white"/>
</clipPath>
</defs>
</svg>
