<svg width="601" height="404" viewBox="0 0 601 404" fill="none" xmlns="http://www.w3.org/2000/svg">
<path d="M502.158 61.9836L455.795 62.4188C453.616 52.0812 446.294 24.9568 452.888 17.5583C453.189 14.7737 454.592 12.2081 456.806 10.3956C459.021 8.58307 461.875 7.66327 464.775 7.82767C471.961 -3.01117 483.93 -1.38379 492.02 5.38555C500.162 8.09251 503.231 12.9016 502.158 19.4278C508.187 24.5133 509.299 30.7006 506.593 37.7437L502.158 61.9836Z" fill="#2F2E41"/>
<path d="M497.694 89.5042L464.245 85.0414L457.555 75.6199C466.771 69.7297 470.032 61.5026 465.789 50.3306L488.946 49.8347C487.861 59.7835 491.275 67.4866 500.782 72.1488L497.694 89.5042Z" fill="#FFB9B9"/>
<path d="M456.337 380.224L455.058 397.073C455 397.835 455.112 398.601 455.387 399.318C455.661 400.036 456.091 400.689 456.649 401.233C457.207 401.777 457.879 402.2 458.62 402.473C459.361 402.746 460.154 402.864 460.946 402.818L469.927 402.293C470.343 402.269 470.749 402.157 471.115 401.964C471.481 401.772 471.798 401.504 472.045 401.18C472.291 400.856 472.461 400.484 472.541 400.09C472.621 399.696 472.611 399.289 472.509 398.899L467.524 379.685L456.337 380.224Z" fill="#E6E6E6"/>
<path d="M485.413 379.685L480.428 398.899C480.326 399.289 480.316 399.696 480.396 400.09C480.476 400.484 480.646 400.856 480.892 401.18C481.139 401.504 481.456 401.772 481.822 401.964C482.188 402.157 482.594 402.269 483.01 402.293L491.991 402.818C492.783 402.864 493.576 402.746 494.317 402.473C495.058 402.2 495.73 401.777 496.288 401.233C496.846 400.689 497.276 400.036 497.55 399.318C497.825 398.601 497.937 397.835 497.879 397.073L496.6 380.224L485.413 379.685Z" fill="#E6E6E6"/>
<path d="M497.18 382.563L485.06 381.391L472.994 257.108L468.433 380.991L456.526 380.58L436.457 209.009H513.132L497.18 382.563Z" fill="#195C62"/>
<path d="M478.654 58.2647C491.443 58.2647 501.811 48.2743 501.811 35.9506C501.811 23.6268 491.443 13.6365 478.654 13.6365C465.865 13.6365 455.497 23.6268 455.497 35.9506C455.497 48.2743 465.865 58.2647 478.654 58.2647Z" fill="#FFB9B9"/>
<path d="M524.454 212.976L430.796 213.967C444.695 162.981 453.01 115.618 438.515 83.0581L461.672 72.149C472.838 83.3713 485.273 82.2143 498.724 71.1572L520.852 76.6118C517.062 119.31 518.76 165.039 524.454 212.976Z" fill="#195C62"/>
<path d="M405.066 160.414L463.216 182.728L476.217 186.412C476.799 186.577 477.409 186.627 478.011 186.559C478.613 186.491 479.194 186.306 479.72 186.016C480.246 185.726 480.706 185.336 481.072 184.87C481.438 184.405 481.702 183.872 481.849 183.306C482.107 182.312 481.991 181.263 481.522 180.344C481.054 179.424 480.262 178.695 479.289 178.284L465.789 174.298L425.135 151.488L433.626 129.918L415.873 120.744L405.066 160.414Z" fill="#FFB9B9"/>
<path d="M405.58 119.752C416.644 123.911 425.444 131.01 432.34 140.579L453.953 110.331L438.515 83.0581L405.58 119.752Z" fill="#195C62"/>
<path d="M504.753 32.3341C495.355 30.0005 486.114 29.6802 477.131 32.64C471.409 35.3105 464.537 35.0644 456.895 32.8641V10.6013L498.152 11.6615L504.753 32.3341Z" fill="#2F2E41"/>
<path d="M463.023 134.415C461.205 134.417 459.461 135.114 458.176 136.353C456.89 137.592 456.166 139.271 456.164 141.024L458.872 195.631C458.874 197.383 459.597 199.063 460.883 200.302C462.168 201.541 463.912 202.238 465.73 202.24H496.682C498.5 202.238 500.244 201.541 501.529 200.302C502.815 199.063 503.539 197.383 503.541 195.631L506.248 141.024C506.246 139.271 505.522 137.592 504.237 136.353C502.951 135.114 501.208 134.417 499.389 134.415H463.023Z" fill="#3F3D56"/>
<path d="M550.842 156.288L500.156 175.736L496.333 177.203C496.211 177.249 496.089 177.288 495.96 177.327L483.148 180.96C481.511 181.423 479.243 179.297 477.917 177.829C477.26 177.122 476.888 176.212 476.868 175.263C476.848 174.314 477.182 173.39 477.808 172.658C477.985 172.461 478.18 172.28 478.391 172.116C478.884 171.746 479.466 171.5 480.083 171.399L492.881 168.973C493.34 168.886 493.781 168.728 494.187 168.503L500.157 165.151L531.147 147.765C532.009 147.282 532.665 146.52 532.999 145.615C533.332 144.709 533.321 143.719 532.968 142.821L527.053 127.789C526.69 126.869 526.687 125.853 527.044 124.932C527.402 124.01 528.095 123.245 528.995 122.78L538.795 117.719C539.355 117.43 539.976 117.266 540.611 117.241C541.246 117.216 541.879 117.331 542.461 117.576C543.044 117.821 543.561 118.19 543.974 118.655C544.387 119.121 544.685 119.67 544.846 120.263L553.353 151.488C553.615 152.446 553.504 153.463 553.041 154.347C552.579 155.231 551.797 155.921 550.842 156.288Z" fill="#FFB9B9"/>
<path d="M553.786 114.298C542.722 118.457 533.923 125.555 527.027 135.124L505.413 104.876L520.851 76.6118L553.786 114.298Z" fill="#195C62"/>
<path d="M494.065 55.8112C483.935 59.8716 473.312 59.7068 462.256 55.8112C465.473 50.5195 460.664 46.3751 458.195 41.0333L499.48 39.8511C496.323 44.4916 491.664 49.9743 494.065 55.8112Z" fill="white"/>
<path d="M499.043 40.7341L498.563 40.273L499.24 39.6209L503.283 35.074L503.798 35.4979L499.737 40.063L499.043 40.7341Z" fill="white"/>
<path d="M455.366 37.9702L454.932 38.4714L458.993 41.7322L459.427 41.231L455.366 37.9702Z" fill="white"/>
<path d="M500.209 44.5682L493.101 55.3279L493.672 55.6782L500.78 44.9185L500.209 44.5682Z" fill="white"/>
<path d="M456.112 44.5673L455.54 44.9175L462.647 55.6782L463.218 55.328L456.112 44.5673Z" fill="white"/>
<path d="M501.51 164.229V176.044L497.242 177.682C497.106 177.733 496.97 177.776 496.826 177.82L482.525 181.875C480.697 182.392 478.166 180.018 476.685 178.38C475.952 177.591 475.537 176.575 475.515 175.516C475.493 174.457 475.865 173.425 476.564 172.608C476.762 172.388 476.98 172.186 477.214 172.003C477.765 171.59 478.414 171.315 479.103 171.203L493.389 168.495C493.901 168.398 494.394 168.221 494.847 167.97L501.51 164.229Z" fill="white"/>
<path d="M507.696 122.086H505.25C505.25 88.7538 498.128 65.5249 491.187 65.5249L490.576 63.1682C496.8 63.1682 500.769 72.8359 503.002 80.9463C506.029 91.9414 507.696 106.552 507.696 122.086Z" fill="#3F3D56"/>
<path d="M451.444 113.838H448.998C448.998 83.3106 456.169 64.3467 466.73 64.3467L466.118 66.7034C458.814 66.7034 451.444 81.2778 451.444 113.838Z" fill="#3F3D56"/>
<path d="M506.473 128.567C509.85 128.567 512.587 125.929 512.587 122.675C512.587 119.421 509.85 116.784 506.473 116.784C503.096 116.784 500.359 119.421 500.359 122.675C500.359 125.929 503.096 128.567 506.473 128.567Z" fill="#3F3D56"/>
<path d="M441.66 127.978H439.215C439.215 119.531 444.152 112.659 450.221 112.659V115.016C445.5 115.016 441.66 120.831 441.66 127.978Z" fill="#3F3D56"/>
<path d="M461.227 127.978H458.781C458.781 120.831 454.941 115.016 450.221 115.016V112.659C456.289 112.659 461.227 119.531 461.227 127.978Z" fill="#3F3D56"/>
<path d="M460.004 130.924C461.354 130.924 462.449 129.869 462.449 128.567C462.449 127.266 461.354 126.21 460.004 126.21C458.653 126.21 457.558 127.266 457.558 128.567C457.558 129.869 458.653 130.924 460.004 130.924Z" fill="#3F3D56"/>
<path d="M440.438 130.924C441.788 130.924 442.883 129.869 442.883 128.567C442.883 127.266 441.788 126.21 440.438 126.21C439.087 126.21 437.992 127.266 437.992 128.567C437.992 129.869 439.087 130.924 440.438 130.924Z" fill="#3F3D56"/>
<path d="M145.696 49.367L102.742 56.3762C101.68 56.5507 100.59 56.3396 99.681 55.7839C98.7721 55.2282 98.1094 54.3674 97.8212 53.368C94.7178 42.5751 88.2296 28.4953 94.529 21.4272C94.8499 18.4538 96.3486 15.7141 98.7131 13.7786C101.078 11.8431 104.126 10.8609 107.223 11.0364C114.896 -0.537716 127.677 1.20007 136.316 8.42865C145.009 11.3193 148.287 16.4546 147.141 23.4235C150.897 26.5913 152.866 30.1595 153.281 34.0759C153.478 36.2553 153.19 38.45 152.437 40.5138C151.684 42.5775 150.482 44.4627 148.913 46.0436L145.696 49.367Z" fill="#2F2E41"/>
<path d="M139.017 81.9524L105.718 80.065C108.982 72.8476 110.285 65.8975 108.983 59.303H133.794C133.738 64.3663 136.353 73.1249 139.017 81.9524Z" fill="#9F616A"/>
<path d="M98.9346 378.443L97.5688 396.435C97.507 397.249 97.6266 398.067 97.9196 398.833C98.2126 399.599 98.6723 400.296 99.2677 400.877C99.8632 401.458 100.581 401.91 101.372 402.202C102.163 402.494 103.011 402.619 103.856 402.57L113.447 402.01C113.891 401.984 114.324 401.864 114.715 401.658C115.106 401.453 115.445 401.167 115.708 400.821C115.971 400.475 116.152 400.078 116.238 399.657C116.324 399.236 116.312 398.802 116.204 398.386L110.881 377.867L98.9346 378.443Z" fill="#E6E6E6"/>
<path d="M129.983 377.867L124.659 398.385C124.552 398.802 124.54 399.236 124.626 399.657C124.711 400.078 124.892 400.475 125.156 400.821C125.419 401.167 125.758 401.453 126.149 401.658C126.539 401.864 126.972 401.984 127.417 402.01L137.007 402.57C137.853 402.619 138.7 402.494 139.492 402.202C140.283 401.91 141 401.458 141.596 400.877C142.191 400.296 142.651 399.599 142.944 398.833C143.237 398.067 143.357 397.249 143.295 396.435L141.929 378.443L129.983 377.867Z" fill="#E6E6E6"/>
<path d="M142.548 380.941L129.606 379.689L116.721 246.975L111.852 379.262L99.1366 378.823L77.7057 195.612H159.583L142.548 380.941Z" fill="white"/>
<path d="M122.043 66.9405C135.7 66.9405 146.771 56.2724 146.771 43.1126C146.771 29.9528 135.7 19.2847 122.043 19.2847C108.386 19.2847 97.3148 29.9528 97.3148 43.1126C97.3148 56.2724 108.386 66.9405 122.043 66.9405Z" fill="#9F616A"/>
<path d="M149.913 31.7297C139.877 30.0454 130.009 29.8142 120.417 31.9505C114.307 33.8779 106.969 33.7003 98.8081 32.1122V16.0437L142.864 16.8089L149.913 31.7297Z" fill="#2F2E41"/>
<path d="M138.5 62.2315C127.682 66.5675 116.339 66.3914 104.532 62.2315C107.968 56.5809 102.832 52.1553 100.196 46.4512L144.282 45.1887C140.91 50.1441 135.936 55.9987 138.5 62.2315Z" fill="#195C62"/>
<path d="M97.1603 43.197L96.7268 43.6982L101.063 47.1801L101.496 46.6788L97.1603 43.197Z" fill="#195C62"/>
<path d="M145.08 50.2371L137.49 61.7268L138.061 62.0771L145.651 50.5873L145.08 50.2371Z" fill="#195C62"/>
<path d="M97.9509 50.2365L97.3798 50.5867L104.968 62.0775L105.539 61.7273L97.9509 50.2365Z" fill="#195C62"/>
<path d="M75.0311 151.788L56.0964 140.463L72.2444 94.891C74.0454 90.1885 77.4951 86.2402 81.9969 83.7287L87.4366 80.6941L87.9096 126.668L75.0311 151.788Z" fill="white"/>
<path d="M156.875 173.922L154.074 150.801C153.924 138.597 156.079 126.798 161.217 115.927L163.828 81.9524L135.1 70.6277C135.012 71.1918 134.937 71.7556 134.853 72.3196L121.388 78.8067L108.257 75.931L108.33 71.886L82.2133 83.2108C90.8501 121.902 86.1394 162.082 71.2871 209.541L105.694 218.606L105.98 202.687L136.643 200.576C136.959 205.741 137.213 210.814 137.36 215.775C154.663 221.913 155.257 221.811 171.022 213.023C164.744 200.304 159.773 187.068 156.875 173.922Z" fill="white"/>
<path d="M201.045 146.126L183.416 140.464L155.218 108.832L163.828 81.9529L203.003 134.802L201.045 146.126Z" fill="white"/>
<path d="M145.796 170.615C146.085 171.834 146.863 172.894 147.961 173.561C149.059 174.229 150.387 174.449 151.654 174.175L166.618 170.909L164.456 161.705L149.491 164.97C148.224 165.247 147.123 165.997 146.43 167.055C145.738 168.114 145.509 169.394 145.796 170.615Z" fill="#195C62"/>
<path d="M159.258 159.967L167.746 175.067C182.022 171.23 194.395 159.134 206.268 144.868L203.003 134.801L182.763 139.834L159.258 159.967Z" fill="white"/>
<path d="M48.5876 112.603L64.8823 115.407L102.127 166.437L82.3411 161.95L48.5876 112.603Z" fill="#E6E6E6"/>
<path d="M45.6975 111.979C45.4492 111.982 45.2064 112.05 44.9946 112.175C44.7828 112.3 44.6098 112.477 44.4936 112.689C44.3773 112.9 44.3222 113.138 44.3339 113.377C44.3457 113.616 44.4239 113.848 44.5603 114.048L79.3745 164.946C79.5688 165.231 79.8689 165.433 80.213 165.511L96.411 169.183C96.6842 169.245 96.9703 169.225 97.2317 169.127C97.493 169.029 97.7171 168.856 97.8742 168.632C98.0314 168.408 98.1142 168.143 98.1116 167.873C98.109 167.603 98.0211 167.339 97.8597 167.118L59.6358 114.747C59.5321 114.605 59.4003 114.483 59.2479 114.389C59.0954 114.296 58.9253 114.232 58.7473 114.202L45.9586 112.001C45.8724 111.986 45.785 111.979 45.6975 111.979Z" fill="#3F3D56"/>
<path d="M67.4148 148.371L68.3824 157.762L83.6508 156.301C84.9432 156.178 86.1317 155.565 86.9548 154.597C87.778 153.629 88.1684 152.385 88.0401 151.14C87.9119 149.894 87.2755 148.749 86.2709 147.956C85.2663 147.163 83.9759 146.787 82.6835 146.91L67.4148 148.371Z" fill="#195C62"/>
<path d="M54.1379 147.283C54.1601 150.485 55.4948 153.549 57.8512 155.807C60.2075 158.065 63.3946 159.334 66.7178 159.338H69.2284L71.0562 144.661L55.9226 139.411L54.1379 147.283Z" fill="white"/>
<path d="M143.075 46.8123L142.597 46.3513L143.319 45.6548L147.638 40.7981L148.152 41.222L143.816 46.0969L143.075 46.8123Z" fill="#195C62"/>
<path d="M601 401.802H0V403.106H601V401.802Z" fill="#3F3D56"/>
<path d="M229.436 401.15H371.564V235.033C371.564 226.237 362.573 219.081 351.521 219.081H249.479C238.427 219.081 229.436 226.237 229.436 235.033V401.15Z" fill="#E6E6E6"/>
<path d="M240.265 394.28H360.735V253.477C360.735 246.021 353.114 239.955 343.747 239.955H257.253C247.886 239.955 240.265 246.021 240.265 253.477V394.28Z" fill="white"/>
<path d="M228.362 206.153C224.849 206.153 221.991 208.428 221.991 211.223V225.861C221.991 228.656 224.849 230.931 228.362 230.931H372.638C376.151 230.931 379.009 228.656 379.009 225.861V211.223C379.009 208.428 376.151 206.153 372.638 206.153H228.362Z" fill="#3F3D56"/>
<path d="M257.984 376.226C256.335 376.23 254.754 376.864 253.588 377.987C252.422 379.111 251.764 380.634 251.76 382.223C251.764 383.813 252.422 385.335 253.588 386.459C254.754 387.583 256.335 388.216 257.984 388.221H269.634V376.226H257.984Z" fill="#3F3D56"/>
<path d="M280.328 376.226H268.996V388.221H280.328C281.977 388.216 283.557 387.583 284.723 386.459C285.89 385.335 286.547 383.813 286.552 382.223C286.547 380.634 285.89 379.111 284.723 377.987C283.557 376.864 281.977 376.23 280.328 376.226Z" fill="#195C62"/>
<path opacity="0.2" d="M284.389 377.694C285.371 378.779 285.912 380.169 285.913 381.608C285.909 383.197 285.251 384.72 284.085 385.844C282.919 386.968 281.338 387.601 279.689 387.606H268.996V388.221H280.328C281.977 388.216 283.557 387.583 284.723 386.459C285.89 385.335 286.547 383.813 286.552 382.223C286.55 381.363 286.356 380.513 285.983 379.732C285.61 378.95 285.066 378.255 284.389 377.694Z" fill="black"/>
<path d="M310.558 285.884C309.423 284.731 307.861 284.057 306.212 284.01C304.564 283.963 302.963 284.547 301.76 285.634C300.563 286.727 299.864 288.233 299.815 289.821C299.766 291.41 300.372 292.952 301.5 294.112L309.491 302.281L318.55 294.053L310.558 285.884Z" fill="#3F3D56"/>
<path d="M325.885 301.551L318.112 293.605L309.053 301.834L316.826 309.779C317.961 310.932 319.523 311.606 321.172 311.653C322.82 311.7 324.421 311.116 325.625 310.029C326.822 308.936 327.521 307.43 327.569 305.842C327.618 304.253 327.012 302.71 325.885 301.551Z" fill="#195C62"/>
<path opacity="0.2" d="M327.561 305.406C327.416 306.838 326.737 308.172 325.651 309.16C324.448 310.246 322.847 310.83 321.199 310.783C319.55 310.736 317.988 310.063 316.853 308.909L309.518 301.412L309.053 301.834L316.826 309.779C317.961 310.932 319.523 311.606 321.172 311.653C322.82 311.7 324.421 311.116 325.625 310.029C326.273 309.438 326.782 308.719 327.116 307.921C327.451 307.123 327.602 306.266 327.561 305.406Z" fill="black"/>
<path d="M277.395 304.797C276.26 303.643 274.698 302.97 273.049 302.923C271.401 302.876 269.8 303.46 268.596 304.546C267.399 305.64 266.7 307.145 266.652 308.734C266.603 310.322 267.209 311.865 268.337 313.025L276.328 321.194L285.387 312.966L277.395 304.797Z" fill="#3F3D56"/>
<path d="M292.721 320.464L284.949 312.518L275.89 320.746L283.663 328.692C284.798 329.845 286.36 330.519 288.008 330.565C289.657 330.612 291.258 330.029 292.461 328.942C293.658 327.848 294.357 326.343 294.406 324.754C294.455 323.166 293.849 321.623 292.721 320.464Z" fill="#195C62"/>
<path opacity="0.2" d="M294.398 324.319C294.252 325.751 293.574 327.084 292.488 328.072C291.285 329.159 289.684 329.743 288.035 329.696C286.387 329.649 284.824 328.975 283.689 327.822L276.355 320.324L275.89 320.746L283.663 328.692C284.798 329.845 286.36 330.519 288.008 330.565C289.657 330.612 291.258 330.029 292.461 328.942C293.11 328.351 293.619 327.632 293.953 326.834C294.287 326.036 294.439 325.178 294.398 324.319Z" fill="black"/>
<path d="M310.558 322.405C309.423 321.252 307.861 320.578 306.212 320.531C304.564 320.484 302.963 321.068 301.76 322.155C300.563 323.248 299.864 324.754 299.815 326.342C299.766 327.931 300.372 329.473 301.5 330.633L309.491 338.802L318.55 330.574L310.558 322.405Z" fill="#3F3D56"/>
<path d="M325.885 338.072L318.112 330.127L309.053 338.355L316.826 346.3C317.961 347.453 319.523 348.127 321.172 348.174C322.82 348.221 324.421 347.637 325.625 346.55C326.822 345.457 327.521 343.951 327.569 342.363C327.618 340.774 327.012 339.232 325.885 338.072Z" fill="#195C62"/>
<path opacity="0.2" d="M327.561 341.927C327.416 343.36 326.737 344.693 325.651 345.681C324.448 346.767 322.847 347.351 321.199 347.304C319.55 347.257 317.988 346.584 316.853 345.43L309.518 337.933L309.053 338.355L316.826 346.3C317.961 347.453 319.523 348.127 321.172 348.174C322.82 348.221 324.421 347.637 325.625 346.55C326.273 345.959 326.782 345.24 327.116 344.442C327.451 343.645 327.602 342.787 327.561 341.927Z" fill="black"/>
<path d="M330.79 359.883C331.973 358.776 332.653 357.262 332.681 355.673C332.71 354.084 332.085 352.549 330.942 351.402C329.793 350.262 328.222 349.607 326.573 349.579C324.924 349.552 323.331 350.154 322.141 351.255L313.761 359.054L322.41 367.682L330.79 359.883Z" fill="#3F3D56"/>
<path d="M314.718 374.841L322.869 367.255L314.22 358.627L306.07 366.213C304.887 367.32 304.207 368.834 304.178 370.423C304.15 372.012 304.775 373.547 305.917 374.693C307.066 375.833 308.637 376.489 310.286 376.516C311.935 376.544 313.529 375.941 314.718 374.841Z" fill="#195C62"/>
<path opacity="0.2" d="M310.738 376.503C309.25 376.38 307.858 375.743 306.82 374.708C305.677 373.562 305.052 372.027 305.081 370.438C305.109 368.849 305.79 367.335 306.973 366.228L314.664 359.069L314.22 358.627L306.07 366.213C304.887 367.32 304.207 368.834 304.178 370.423C304.15 372.012 304.775 373.547 305.917 374.693C306.538 375.311 307.291 375.793 308.123 376.105C308.954 376.417 309.846 376.553 310.738 376.503Z" fill="black"/>
<path d="M286.121 340.97C287.304 339.863 287.984 338.349 288.012 336.76C288.041 335.171 287.416 333.636 286.274 332.489C285.124 331.35 283.554 330.694 281.904 330.667C280.255 330.639 278.662 331.241 277.472 332.342L269.092 340.142L277.741 348.77L286.121 340.97Z" fill="#3F3D56"/>
<path d="M270.049 355.928L278.2 348.342L269.551 339.714L261.401 347.3C260.218 348.407 259.538 349.921 259.509 351.51C259.481 353.099 260.106 354.634 261.248 355.781C262.397 356.92 263.968 357.576 265.617 357.603C267.266 357.631 268.86 357.029 270.049 355.928Z" fill="#195C62"/>
<path opacity="0.2" d="M266.069 357.59C264.581 357.467 263.189 356.83 262.151 355.796C261.009 354.649 260.383 353.114 260.412 351.525C260.441 349.936 261.121 348.422 262.304 347.315L269.995 340.157L269.551 339.714L261.401 347.3C260.218 348.407 259.538 349.921 259.509 351.51C259.481 353.099 260.106 354.634 261.248 355.781C261.87 356.398 262.622 356.88 263.454 357.192C264.286 357.504 265.178 357.64 266.069 357.59Z" fill="black"/>
<path d="M349.74 318.145C350.923 317.037 351.603 315.524 351.632 313.935C351.66 312.346 351.035 310.81 349.893 309.664C348.744 308.524 347.173 307.869 345.524 307.841C343.875 307.813 342.281 308.416 341.092 309.517L332.712 317.316L341.36 325.944L349.74 318.145Z" fill="#3F3D56"/>
<path d="M333.669 333.102L341.819 325.516L333.171 316.888L325.02 324.474C323.837 325.581 323.157 327.095 323.129 328.684C323.1 330.273 323.725 331.808 324.867 332.955C326.017 334.095 327.587 334.75 329.237 334.778C330.886 334.805 332.479 334.203 333.669 333.102Z" fill="#195C62"/>
<path opacity="0.2" d="M329.688 334.765C328.2 334.641 326.809 334.004 325.77 332.97C324.628 331.824 324.003 330.288 324.031 328.699C324.06 327.11 324.74 325.597 325.923 324.489L333.614 317.331L333.171 316.888L325.02 324.474C323.837 325.581 323.157 327.095 323.129 328.684C323.1 330.273 323.725 331.808 324.867 332.955C325.489 333.573 326.241 334.054 327.073 334.366C327.905 334.679 328.797 334.814 329.688 334.765Z" fill="black"/>
<path d="M335.6 365.448C334.465 364.295 332.903 363.621 331.254 363.574C329.606 363.527 328.005 364.111 326.801 365.198C325.604 366.291 324.905 367.797 324.857 369.385C324.808 370.974 325.414 372.516 326.541 373.676L334.533 381.845L343.591 373.617L335.6 365.448Z" fill="#3F3D56"/>
<path d="M350.926 381.115L343.154 373.169L334.095 381.398L341.868 389.343C343.003 390.496 344.565 391.17 346.213 391.217C347.862 391.264 349.463 390.68 350.666 389.593C351.863 388.5 352.562 386.994 352.611 385.406C352.66 383.817 352.054 382.274 350.926 381.115Z" fill="#195C62"/>
<path opacity="0.2" d="M352.603 384.97C352.457 386.402 351.779 387.735 350.693 388.724C349.49 389.81 347.889 390.394 346.24 390.347C344.592 390.3 343.029 389.626 341.894 388.473L334.56 380.976L334.095 381.398L341.868 389.343C343.003 390.496 344.565 391.17 346.213 391.217C347.862 391.264 349.463 390.68 350.666 389.593C351.315 389.002 351.824 388.283 352.158 387.485C352.492 386.687 352.644 385.83 352.603 384.97Z" fill="black"/>
<path d="M291.608 364.796C290.473 363.642 288.911 362.969 287.262 362.922C285.613 362.875 284.013 363.459 282.809 364.545C281.612 365.639 280.913 367.144 280.865 368.733C280.816 370.321 281.422 371.864 282.549 373.024L290.541 381.193L299.599 372.965L291.608 364.796Z" fill="#3F3D56"/>
<path d="M306.934 380.463L299.161 372.517L290.103 380.745L297.876 388.691C299.01 389.844 300.573 390.518 302.221 390.564C303.87 390.611 305.471 390.028 306.674 388.941C307.871 387.847 308.57 386.342 308.619 384.753C308.668 383.165 308.062 381.622 306.934 380.463Z" fill="#195C62"/>
<path opacity="0.2" d="M308.611 384.318C308.465 385.75 307.787 387.083 306.701 388.071C305.498 389.158 303.897 389.742 302.248 389.695C300.599 389.648 299.037 388.974 297.902 387.821L290.568 380.323L290.103 380.745L297.876 388.691C299.01 389.844 300.573 390.518 302.221 390.564C303.87 390.611 305.471 390.028 306.674 388.941C307.323 388.35 307.832 387.631 308.166 386.833C308.5 386.035 308.652 385.177 308.611 384.318Z" fill="black"/>
<path d="M303.991 343.279C303.991 345.273 303.277 347.206 301.968 348.75C300.66 350.295 298.837 351.357 296.81 351.755C295.625 351.986 294.404 351.986 293.219 351.755C291.192 351.356 289.37 350.294 288.061 348.75C286.753 347.205 286.038 345.273 286.038 343.279C286.038 341.285 286.753 339.352 288.061 337.807C289.37 336.263 291.192 335.201 293.219 334.802C294.404 334.571 295.625 334.571 296.81 334.802C298.837 335.201 300.66 336.262 301.968 337.807C303.277 339.352 303.991 341.285 303.991 343.279Z" fill="#195C62"/>
<path opacity="0.2" d="M296.81 334.802V351.755C295.625 351.986 294.404 351.986 293.219 351.755V334.802C294.404 334.571 295.625 334.571 296.81 334.802Z" fill="black"/>
<path d="M308.052 308.714C308.052 310.708 307.338 312.641 306.029 314.186C304.72 315.73 302.898 316.792 300.87 317.191C299.686 317.421 298.465 317.421 297.28 317.191C295.252 316.792 293.43 315.73 292.122 314.185C290.813 312.641 290.099 310.708 290.099 308.714C290.099 306.72 290.813 304.787 292.122 303.243C293.43 301.698 295.252 300.636 297.28 300.237C298.465 300.007 299.686 300.007 300.87 300.237C302.898 300.636 304.72 301.698 306.029 303.242C307.338 304.787 308.052 306.72 308.052 308.714Z" fill="#195C62"/>
<path opacity="0.2" d="M300.871 300.237V317.191C299.686 317.421 298.465 317.421 297.28 317.191V300.237C298.465 300.007 299.686 300.007 300.871 300.237Z" fill="black"/>
<path d="M308.052 358.278C308.052 360.272 307.338 362.205 306.029 363.75C304.72 365.295 302.898 366.356 300.87 366.755C299.686 366.986 298.465 366.986 297.28 366.755C295.252 366.356 293.43 365.294 292.122 363.75C290.813 362.205 290.099 360.272 290.099 358.278C290.099 356.284 290.813 354.352 292.122 352.807C293.43 351.262 295.252 350.201 297.28 349.802C298.465 349.571 299.686 349.571 300.87 349.802C302.898 350.2 304.72 351.262 306.029 352.807C307.338 354.351 308.052 356.284 308.052 358.278Z" fill="#195C62"/>
<path opacity="0.2" d="M300.871 349.802V366.755C299.686 366.986 298.465 366.986 297.28 366.755V349.802C298.465 349.571 299.686 349.571 300.871 349.802Z" fill="black"/>
<path d="M330.386 382.408C330.387 384.402 329.672 386.335 328.363 387.88C327.055 389.425 325.232 390.486 323.205 390.885C322.02 391.116 320.799 391.116 319.614 390.885C317.587 390.486 315.765 389.424 314.456 387.88C313.148 386.335 312.433 384.402 312.433 382.408C312.433 380.414 313.148 378.482 314.456 376.937C315.765 375.392 317.587 374.331 319.614 373.932C320.799 373.701 322.02 373.701 323.205 373.932C325.232 374.33 327.055 375.392 328.363 376.937C329.672 378.481 330.387 380.414 330.386 382.408Z" fill="#195C62"/>
<path opacity="0.2" d="M323.205 373.932V390.885C322.02 391.116 320.799 391.116 319.614 390.885V373.932C320.799 373.701 322.02 373.701 323.205 373.932Z" fill="black"/>
<path d="M350.116 338.012C351.606 339.395 352.555 341.233 352.801 343.213C353.047 345.192 352.575 347.193 351.466 348.877C350.816 349.859 349.969 350.706 348.975 351.368C347.269 352.498 345.212 353.025 343.149 352.861C341.087 352.697 339.147 351.851 337.657 350.468C336.167 349.084 335.219 347.247 334.973 345.267C334.727 343.287 335.198 341.286 336.307 339.603C336.957 338.621 337.804 337.774 338.799 337.112C340.504 335.982 342.562 335.454 344.624 335.618C346.686 335.782 348.626 336.628 350.116 338.012Z" fill="#195C62"/>
<path opacity="0.2" d="M338.799 337.112L351.466 348.877C350.816 349.859 349.969 350.706 348.974 351.368L336.307 339.603C336.957 338.621 337.804 337.774 338.799 337.112Z" fill="black"/>
<path d="M352.823 356.925C354.313 358.308 355.262 360.145 355.508 362.125C355.754 364.105 355.283 366.106 354.173 367.79C353.524 368.772 352.676 369.619 351.682 370.281C349.976 371.41 347.919 371.938 345.856 371.773C343.794 371.609 341.854 370.764 340.364 369.38C338.874 367.997 337.926 366.159 337.68 364.18C337.434 362.2 337.905 360.199 339.014 358.515C339.664 357.533 340.511 356.686 341.506 356.024C343.211 354.894 345.269 354.367 347.331 354.531C349.393 354.695 351.334 355.541 352.823 356.925Z" fill="#195C62"/>
<path opacity="0.2" d="M341.506 356.024L354.174 367.789C353.524 368.772 352.676 369.619 351.682 370.281L339.014 358.515C339.664 357.533 340.511 356.686 341.506 356.024Z" fill="black"/>
<path d="M272.284 361.49C273.774 362.873 274.723 364.711 274.969 366.69C275.215 368.67 274.743 370.671 273.634 372.355C272.984 373.337 272.137 374.184 271.142 374.846C269.437 375.975 267.379 376.503 265.317 376.339C263.255 376.175 261.315 375.329 259.825 373.945C258.335 372.562 257.387 370.725 257.141 368.745C256.895 366.765 257.366 364.764 258.475 363.081C259.125 362.098 259.972 361.251 260.966 360.589C262.672 359.459 264.729 358.932 266.792 359.096C268.854 359.26 270.794 360.106 272.284 361.49Z" fill="#195C62"/>
<path opacity="0.2" d="M260.966 360.589L273.634 372.355C272.984 373.337 272.137 374.184 271.142 374.846L258.475 363.08C259.125 362.098 259.972 361.251 260.966 360.589Z" fill="black"/>
<path opacity="0.2" d="M243.31 206.153H239.926V230.283H243.31V206.153Z" fill="black"/>
<path opacity="0.2" d="M262.937 206.153H259.553V230.283H262.937V206.153Z" fill="black"/>
<path opacity="0.2" d="M282.565 206.153H279.181V230.283H282.565V206.153Z" fill="black"/>
<path opacity="0.2" d="M302.192 206.153H298.808V230.283H302.192V206.153Z" fill="black"/>
<path opacity="0.2" d="M321.819 206.153H318.435V230.283H321.819V206.153Z" fill="black"/>
<path opacity="0.2" d="M341.447 206.153H338.062V230.283H341.447V206.153Z" fill="black"/>
<path opacity="0.2" d="M361.074 206.153H357.69V230.283H361.074V206.153Z" fill="black"/>
</svg>
