<svg width="100" height="132" viewBox="0 0 100 132" fill="none" xmlns="http://www.w3.org/2000/svg">
<path fill-rule="evenodd" clip-rule="evenodd" d="M0 3.29587C0 2.42175 0.421428 1.58343 1.17157 0.965339C1.92172 0.347243 2.93913 0 4 0H44C45.0609 0 46.0783 0.347243 46.8284 0.965339C47.5786 1.58343 48 2.42175 48 3.29587V16.4794C48 17.3535 47.5786 18.1918 46.8284 18.8099C46.0783 19.428 45.0609 19.7752 44 19.7752H40V23.9709C41.1703 24.3118 42.1835 24.9434 42.8999 25.7787C43.6163 26.6139 44.0007 27.6117 44 28.6345V69.21C40.9699 71.0858 38.2766 73.305 36 75.8017V69.1638L16.06 52.7339H12V56.5472L35.732 76.1016C34.0957 77.9372 32.6949 79.9077 31.552 81.9815L12 65.868V73.0266L29.28 87.2647C28.4335 89.9648 28.0035 92.7421 28 95.5308L12 82.3473V89.5059L29.22 103.695C31.3377 110.552 36.0765 116.666 42.736 121.133C41.0878 124.745 37.9541 127.766 33.8808 129.67C29.8074 131.574 25.0524 132.241 20.444 131.554C15.8357 130.866 11.666 128.869 8.66118 125.909C5.65638 122.949 4.00688 119.214 4 115.355V28.6312C4.00018 27.609 4.38492 26.6119 5.10127 25.7773C5.81761 24.9427 6.83033 24.3116 8 23.9709V19.7752H4C2.93913 19.7752 1.92172 19.428 1.17157 18.8099C0.421428 18.1918 0 17.3535 0 16.4794V3.29587ZM36 29.999C34.8297 29.6581 33.8165 29.0265 33.1001 28.1912C32.3837 27.3559 31.9993 26.3581 32 25.3354V19.7752H16V25.3386C15.9998 26.3609 15.6151 27.3579 14.8987 28.1925C14.1824 29.0271 13.1697 29.6583 12 29.999V46.1422H36V29.999ZM36 59.8431L27.376 52.7339H32.056L36 55.9804V59.8431ZM32.164 122.6L12 105.985V98.8267L35.5 118.19C34.8852 119.879 33.7334 121.401 32.164 122.6ZM24.06 125.243L12 115.306V115.355C12 117.978 13.2643 120.493 15.5147 122.347C17.7652 124.201 20.8174 125.243 24 125.243H24.06ZM8 13.1835V6.59174H40V13.1835H8Z" fill="white"/>
<path fill-rule="evenodd" clip-rule="evenodd" d="M72 75.8051C73.0609 75.8051 74.0783 75.4579 74.8284 74.8398C75.5786 74.2217 76 73.3834 76 72.5092C76 71.6351 75.5786 70.7968 74.8284 70.1787C74.0783 69.5606 73.0609 69.2134 72 69.2134H64C62.9391 69.2134 61.9217 69.5606 61.1716 70.1787C60.4214 70.7968 60 71.6351 60 72.5092C60 73.3834 60.4214 74.2217 61.1716 74.8398C61.9217 75.4579 62.9391 75.8051 64 75.8051V79.4306C61.448 79.859 59.068 80.683 56.972 81.83L53.656 79.101C54.3846 78.4794 54.7878 77.6468 54.7787 76.7827C54.7696 75.9185 54.3489 75.0919 53.6073 74.4808C52.8656 73.8697 51.8624 73.5231 50.8136 73.5156C49.7648 73.5081 48.7544 73.8403 48 74.4406L45.208 76.7411L45.168 76.7708L45.132 76.8038L42.344 79.101C41.6154 79.7226 41.2122 80.5551 41.2213 81.4193C41.2304 82.2835 41.6511 83.1101 42.3927 83.7212C43.1344 84.3323 44.1376 84.6789 45.1864 84.6864C46.2352 84.6939 47.2456 84.3617 48 83.7613L51.312 86.4936C49.8981 88.2515 48.9094 90.2178 48.4 92.2845H44C44 91.4104 43.5786 90.572 42.8284 89.9539C42.0783 89.3358 41.0609 88.9886 40 88.9886C38.9391 88.9886 37.9217 89.3358 37.1716 89.9539C36.4214 90.572 36 91.4104 36 92.2845V98.8762C36 99.7503 36.4214 100.589 37.1716 101.207C37.9217 101.825 38.9391 102.172 40 102.172C41.0609 102.172 42.0783 101.825 42.8284 101.207C43.5786 100.589 44 99.7503 44 98.8762H48.4C48.92 100.979 49.92 102.94 51.312 104.667L48 107.399C47.631 107.085 47.1896 106.833 46.7016 106.661C46.2136 106.488 45.6887 106.397 45.1576 106.393C44.6265 106.389 44.0998 106.473 43.6082 106.639C43.1166 106.804 42.67 107.049 42.2944 107.358C41.9188 107.668 41.6218 108.036 41.4207 108.441C41.2196 108.846 41.1184 109.28 41.123 109.718C41.1276 110.155 41.238 110.588 41.4476 110.99C41.6572 111.392 41.962 111.756 42.344 112.06L48 116.72C48.7544 117.32 49.7648 117.653 50.8136 117.645C51.8624 117.638 52.8656 117.291 53.6073 116.68C54.3489 116.069 54.7696 115.242 54.7787 114.378C54.7878 113.514 54.3846 112.681 53.656 112.06L56.972 109.331C59.1055 110.496 61.4918 111.31 64 111.73V115.356C62.9391 115.356 61.9217 115.703 61.1716 116.321C60.4214 116.939 60 117.777 60 118.651C60 119.526 60.4214 120.364 61.1716 120.982C61.9217 121.6 62.9391 121.947 64 121.947H72C73.0609 121.947 74.0783 121.6 74.8284 120.982C75.5786 120.364 76 119.526 76 118.651C76 117.777 75.5786 116.939 74.8284 116.321C74.0783 115.703 73.0609 115.356 72 115.356V111.73C74.5082 111.31 76.8945 110.496 79.028 109.331L82.344 112.06C81.6154 112.681 81.2122 113.514 81.2213 114.378C81.2304 115.242 81.6511 116.069 82.3927 116.68C83.1344 117.291 84.1376 117.638 85.1864 117.645C86.2352 117.653 87.2456 117.32 88 116.72L93.656 112.06C94.3846 111.438 94.7878 110.606 94.7787 109.741C94.7696 108.877 94.3489 108.051 93.6073 107.439C92.8656 106.828 91.8624 106.482 90.8136 106.474C89.7648 106.467 88.7544 106.799 88 107.399L84.688 104.667C86.1018 102.909 87.0906 100.943 87.6 98.8762H92C92 99.7503 92.4214 100.589 93.1716 101.207C93.9217 101.825 94.9391 102.172 96 102.172C97.0609 102.172 98.0783 101.825 98.8284 101.207C99.5786 100.589 100 99.7503 100 98.8762V92.2845C100 91.4104 99.5786 90.572 98.8284 89.9539C98.0783 89.3358 97.0609 88.9886 96 88.9886C94.9391 88.9886 93.9217 89.3358 93.1716 89.9539C92.4214 90.572 92 91.4104 92 92.2845H87.6C87.0906 90.2178 86.1018 88.2515 84.688 86.4936L88 83.7613C88.369 84.0761 88.8104 84.3272 89.2984 84.5C89.7864 84.6727 90.3113 84.7636 90.8424 84.7674C91.3735 84.7712 91.9002 84.6878 92.3918 84.5221C92.8834 84.3564 93.33 84.1117 93.7056 83.8022C94.0812 83.4927 94.3782 83.1248 94.5793 82.7197C94.7804 82.3147 94.8816 81.8807 94.877 81.443C94.8724 81.0054 94.762 80.5729 94.5524 80.1708C94.3428 79.7687 94.038 79.405 93.656 79.101L88 74.4406C87.2456 73.8403 86.2352 73.5081 85.1864 73.5156C84.1376 73.5231 83.1344 73.8697 82.3927 74.4808C81.6511 75.0919 81.2304 75.9185 81.2213 76.7827C81.2122 77.6468 81.6154 78.4794 82.344 79.101L79.028 81.83C76.8945 80.665 74.5082 79.8503 72 79.4306V75.8051ZM68 85.6927C64.8174 85.6927 61.7652 86.7345 59.5147 88.5887C57.2643 90.443 56 92.958 56 95.5803C56 98.2027 57.2643 100.718 59.5147 102.572C61.7652 104.426 64.8174 105.468 68 105.468C71.1826 105.468 74.2348 104.426 76.4853 102.572C78.7357 100.718 80 98.2027 80 95.5803C80 92.958 78.7357 90.443 76.4853 88.5887C74.2348 86.7345 71.1826 85.6927 68 85.6927Z" fill="white"/>
</svg>
