<svg width="137" height="127" viewBox="0 0 137 127" fill="none" xmlns="http://www.w3.org/2000/svg">
<path d="M6.91977 0L0 6.41029L12.19 25.939L20.0953 24.8649L68.3492 69.571L64.2332 73.2326C62.1251 75.1855 62.1251 78.1441 64.2332 80.0969L66.3729 82.084C68.481 84.0369 71.7064 84.0369 73.2874 82.084L79.5484 87.8791C79.0214 90.8084 79.5484 94.2894 82.1835 96.7305L110.674 122.972C116.471 128.343 125.958 128.343 131.755 122.972C138.606 117.114 138.543 108.355 132.746 102.985L104.418 76.5867C101.783 74.1456 98.0257 73.1691 94.8636 74.1456L87.9439 68.3504C89.5249 66.3976 89.5249 63.4097 87.9439 61.9401L85.9675 60.1142C85.4884 59.6514 84.9132 59.2831 84.2765 59.0315C83.6398 58.7799 82.9548 58.6502 82.2626 58.6502C81.5704 58.6502 80.8853 58.7799 80.2486 59.0315C79.6119 59.2831 79.0367 59.6514 78.5576 60.1142L75.1004 63.3169L26.8464 18.6157L27.9953 11.2925L6.91977 0ZM109.689 0.151347C99.2906 -0.649329 85.5037 5.73656 79.053 11.2876C71.1161 18.6401 72.4126 28.2531 78.721 37.5342L67.5271 47.9088L75.4324 56.145C79.6486 52.7275 85.8674 52.7275 90.0836 56.145L92.2285 58.1272L92.7239 58.5861L97.3354 54.3142C106.864 59.5039 116.782 60.2509 124.345 53.245C131.723 46.8982 139.724 31.2459 136.034 21.9698L121.215 36.1574C119.107 38.1103 115.913 38.1103 113.805 36.1574L98.4843 21.9698C97.9846 21.526 97.5871 20.9931 97.3155 20.4033C97.0439 19.8135 96.9039 19.1789 96.9039 18.5376C96.9039 17.8964 97.0439 17.2618 97.3155 16.6719C97.5871 16.0821 97.9846 15.5493 98.4843 15.1054L113.81 0.917849C112.492 0.488217 111.175 0.26852 109.689 0.151347ZM51.7165 61.0272L32.6067 78.7251C30.5532 78.3024 28.4545 78.0977 26.351 78.1148C11.5944 78.1148 0 88.8556 0 102.526C0 116.196 11.5944 126.937 26.351 126.937C41.1076 126.937 52.702 116.196 52.702 102.526C52.702 100.021 52.2751 97.6142 51.5478 95.3537L62.747 84.9791L61.1027 82.997C56.8866 79.0912 56.9182 73.174 60.6073 69.2634L51.7165 61.0272ZM92.5605 83.3045C93.2193 83.3045 93.8412 83.4217 94.3682 83.9148L125.499 112.749C126.553 113.725 126.553 115.278 125.499 116.254C124.445 117.231 122.759 117.231 121.705 116.254L90.5842 87.4202C89.5302 86.4438 89.5302 84.8912 90.5842 83.9148C91.1112 83.4266 91.9018 83.3045 92.5605 83.3045ZM29.9769 89.8564L40.0219 99.1667L36.396 111.826L22.7304 115.185L12.6801 105.875L16.306 93.2153L29.9769 89.8564Z" fill="white"/>
</svg>
