<svg width="138" height="132" viewBox="0 0 138 132" fill="none" xmlns="http://www.w3.org/2000/svg">
<path d="M64.7136 0L60.255 9.69402C57.947 9.82814 55.6507 10.1049 53.3804 10.5225L46.56 2.13575L39.2088 4.51588L39.1722 15.1863C36.0582 16.7105 33.0739 18.5534 30.2549 20.7042L19.8656 16.2497L14.5465 21.6373L19.8653 31.244C18.1684 33.5476 16.6771 35.9826 15.4072 38.5233L4.00048 38.8196L1.68444 45.8718L10.8941 52.3321C10.4532 54.9488 10.2379 57.5928 10.2256 60.239L0 65.1731L1.07101 72.4959L12.2947 74.5882C12.9656 76.8252 13.7976 79.0156 14.7847 81.1438L7.38811 89.888L11.5166 96.1468L23.0147 93.584C23.7423 94.3993 24.4964 95.1928 25.2757 95.9635C26.9035 97.5669 28.6374 99.0694 30.4667 100.462L28.233 111.429L34.9526 115.125L43.7316 107.846C46.2437 108.807 48.83 109.582 51.4675 110.164L54.3331 120.878L62.0683 121.48L66.7188 111.376C69.9325 111.192 73.1355 110.734 76.2853 109.999L83.6734 118.15L90.8778 115.404L90.6669 111.271L73.85 99.1281C68.9543 100.307 63.8775 100.622 58.8913 100.087C49.5891 99.0879 40.6495 95.0876 33.6341 88.1787C17.5988 72.3854 18.0572 47.263 34.6412 31.9936C42.6738 24.5974 53.006 20.8453 63.35 20.7391C74.3618 20.6258 85.3836 24.6434 93.6517 32.7867C107.108 46.0409 108.942 65.9793 99.3824 81.0741L108.748 87.839C109.912 86.1001 110.964 84.2951 111.897 82.434L123.221 82.1375L125.537 75.0853L116.392 68.6691C116.833 66.0309 117.056 63.3638 117.06 60.6924L127.222 55.7756L126.151 48.4528L114.937 46.3606C113.993 43.2672 112.743 40.2664 111.202 37.3988L117.884 28.5852L113.417 22.5437L102.413 25.5861C102.275 25.4466 102.141 25.3052 102.001 25.1676C100.269 23.4612 98.4155 21.8706 96.4535 20.4074L98.5592 10.0508L91.8387 6.35481L83.4897 13.277C80.787 12.2412 78.011 11.435 75.1955 10.8361L72.4585 0.601448L64.7136 0ZM47.677 42.8211C44.6468 42.854 41.6432 43.5625 38.8886 44.8519L52.1357 54.4243C56.142 57.3188 57.2783 62.8197 54.2039 66.6812C51.1285 70.5448 45.2233 71.1256 41.159 68.1898L27.9213 58.6264C26.5658 65.5427 29.1326 72.8711 35.419 77.4129C41.0567 81.485 48.2922 82.2474 54.5249 80.1155L55.9252 79.6357L57.1058 80.4902L96.7092 109.102L97.8898 109.956L97.789 111.369C97.3095 117.659 100.012 124.092 105.653 128.167C111.94 132.708 120.05 133.085 126.681 129.98L113.443 120.417C109.379 117.481 108.381 111.907 111.457 108.047C114.533 104.186 120.403 103.749 124.411 106.643L137.648 116.207C139 109.293 136.444 101.961 130.16 97.4203C124.502 93.3312 117.324 92.5211 111.127 94.6214L109.736 95.0923L108.555 94.2378L68.952 65.6267L67.7714 64.7722L67.8722 63.369C68.3262 57.1239 65.5725 50.7615 59.9166 46.6744C56.2419 44.0198 51.942 42.775 47.6773 42.8213L47.677 42.8211ZM60.4387 67.9976L108.445 102.685L105.14 106.843L57.1245 72.1472L60.4387 67.9976Z" fill="white"/>
</svg>
