<svg width="145" height="145" viewBox="0 0 145 145" fill="none" xmlns="http://www.w3.org/2000/svg">
<path d="M64.9937 133.176C64.5217 134.97 64.1677 136.787 63.9317 138.628C63.6957 140.469 63.5305 142.357 63.4361 144.292C57.3946 143.584 51.6362 142.168 46.1611 140.044C40.6859 137.92 35.612 135.206 30.9393 131.902C26.2665 128.598 22.0186 124.775 18.1954 120.432C14.3722 116.09 11.1155 111.37 8.42511 106.272C5.73474 101.174 3.65796 95.7935 2.19478 90.1294C0.731592 84.4653 0 78.5889 0 72.5C0 65.8447 0.849591 59.4255 2.54877 53.2422C4.24795 47.0589 6.67873 41.2769 9.84109 35.896C13.0035 30.5151 16.7794 25.6299 21.169 21.2402C25.5585 16.8506 30.4673 13.0745 35.8952 9.91211C41.3231 6.74967 47.0815 4.31885 53.1702 2.61963C59.2589 0.92041 65.7017 0.0472005 72.4984 0C79.1535 0 85.549 0.849609 91.685 2.54883C97.8209 4.24805 103.603 6.70247 109.031 9.91211C114.459 13.1217 119.344 16.8978 123.686 21.2402C128.029 25.5827 131.828 30.4915 135.085 35.9668C138.342 41.4421 140.772 47.2005 142.377 53.2422C143.982 59.2839 144.855 65.7031 144.997 72.5H139.97C139.309 71.4144 138.625 70.3524 137.917 69.314C137.209 68.2756 136.383 67.2843 135.439 66.3403C135.156 62.2339 134.424 58.2454 133.244 54.375H46.5151C46.1375 57.3958 45.8543 60.3931 45.6655 63.3667C45.4767 66.3403 45.3587 69.3848 45.3115 72.5C45.3115 75.568 45.4059 78.5889 45.5947 81.5625C45.7835 84.5361 46.0903 87.557 46.5151 90.625H72.4984C72.4984 92.1354 72.6164 93.6458 72.8524 95.1562C73.0884 96.6667 73.3952 98.1771 73.7728 99.6875H48.0727C48.6391 102.378 49.3942 105.328 50.3382 108.538C51.2822 111.747 52.4622 114.886 53.8782 117.954C55.2942 121.022 56.9226 123.901 58.7633 126.592C60.6041 129.282 62.6809 131.477 64.9937 133.176ZM129.775 45.3125C127.934 41.4893 125.763 37.902 123.261 34.5508C120.76 31.1995 117.928 28.1315 114.766 25.3467C111.603 22.5618 108.252 20.0838 104.712 17.9126C101.172 15.7414 97.3489 13.9714 93.2426 12.6025C94.9417 14.9626 96.4521 17.4642 97.7737 20.1074C99.0953 22.7507 100.299 25.4647 101.384 28.2495C102.47 31.0343 103.39 33.8664 104.146 36.7456C104.901 39.6248 105.562 42.4805 106.128 45.3125H129.775ZM72.4984 9.0625C70.1384 9.0625 67.9672 9.69971 65.9849 10.9741C64.0025 12.2485 62.1617 13.9242 60.4625 16.001C58.7633 18.0778 57.253 20.4142 55.9314 23.0103C54.6098 25.6063 53.4062 28.2731 52.3206 31.0107C51.235 33.7484 50.3618 36.3444 49.701 38.7988C49.0403 41.2533 48.4975 43.4245 48.0727 45.3125H96.9241C96.5465 43.4717 96.0037 41.3005 95.2957 38.7988C94.5877 36.2972 93.7146 33.7012 92.6762 31.0107C91.6378 28.3203 90.4578 25.6771 89.1362 23.0811C87.8146 20.485 86.3042 18.125 84.6051 16.001C82.9059 13.877 81.0415 12.2013 79.0119 10.9741C76.9823 9.74691 74.8112 9.1097 72.4984 9.0625ZM51.825 12.5317C47.8131 13.9006 43.9899 15.647 40.3555 17.771C36.7212 19.895 33.3464 22.373 30.2313 25.2051C27.1161 28.0371 24.2841 31.1287 21.7354 34.48C19.1866 37.8312 17.0154 41.4421 15.2218 45.3125H38.8688C39.388 42.7165 40.0252 39.9552 40.7803 37.0288C41.5355 34.1024 42.4795 31.1759 43.6123 28.2495C44.7451 25.3231 45.9723 22.5146 47.2939 19.8242C48.6155 17.1338 50.1258 14.703 51.825 12.5317ZM9.0623 72.5C9.0623 78.7777 9.93549 84.8193 11.6819 90.625H37.382C37.0044 87.6042 36.7212 84.6069 36.5324 81.6333C36.3436 78.6597 36.2492 75.6152 36.2492 72.5C36.2492 69.432 36.3436 66.4111 36.5324 63.4375C36.7212 60.4639 37.0044 57.443 37.382 54.375H11.6819C9.93549 60.1807 9.0623 66.2223 9.0623 72.5ZM15.0802 99.6875C16.921 103.511 19.0922 107.098 21.5938 110.449C24.0953 113.8 26.9273 116.892 30.0897 119.724C33.252 122.556 36.6504 125.011 40.2848 127.087C43.9191 129.164 47.7423 130.934 51.7542 132.397C50.055 130.037 48.5447 127.536 47.2231 124.893C45.9015 122.249 44.6979 119.535 43.6123 116.75C42.5267 113.966 41.6063 111.134 40.8511 108.254C40.096 105.375 39.4116 102.52 38.798 99.6875H15.0802ZM124.748 112.502C127.816 114.06 130.601 115.972 133.103 118.237C135.604 120.503 137.728 123.052 139.474 125.884C141.221 128.716 142.59 131.737 143.581 134.946C144.572 138.156 145.044 141.507 144.997 145H135.934C135.934 141.271 135.226 137.755 133.811 134.451C132.395 131.147 130.459 128.267 128.005 125.813C125.551 123.359 122.648 121.4 119.297 119.937C115.946 118.473 112.429 117.765 108.748 117.812C104.972 117.812 101.455 118.521 98.1985 119.937C94.9417 121.353 92.0626 123.288 89.561 125.742C87.0594 128.197 85.1007 131.099 83.6847 134.451C82.2687 137.802 81.5607 141.318 81.5607 145H72.4984C72.4984 141.554 72.9704 138.227 73.9144 135.017C74.8584 131.807 76.2035 128.763 77.9499 125.884C79.6963 123.005 81.8203 120.456 84.3219 118.237C86.8234 116.019 89.6082 114.107 92.6762 112.502C89.1362 109.954 86.3986 106.768 84.4635 102.944C82.5283 99.1211 81.5607 95.0146 81.5607 90.625C81.5607 86.8962 82.2687 83.3797 83.6847 80.0757C85.1007 76.7716 87.0358 73.8924 89.4902 71.438C91.9446 68.9836 94.8237 67.0247 98.1277 65.5615C101.432 64.0983 104.972 63.3903 108.748 63.4375C112.476 63.4375 115.993 64.1455 119.297 65.5615C122.601 66.9775 125.48 68.9128 127.934 71.3672C130.389 73.8216 132.347 76.7244 133.811 80.0757C135.274 83.4269 135.982 86.9434 135.934 90.625C135.934 94.9674 134.967 99.0503 133.032 102.874C131.097 106.697 128.335 109.906 124.748 112.502ZM108.748 108.75C111.249 108.75 113.586 108.278 115.757 107.334C117.928 106.39 119.863 105.092 121.562 103.44C123.261 101.788 124.559 99.8763 125.456 97.7051C126.353 95.5339 126.825 93.1738 126.872 90.625C126.872 88.1234 126.4 85.7869 125.456 83.6157C124.512 81.4445 123.214 79.5093 121.562 77.8101C119.91 76.1108 117.999 74.8128 115.828 73.916C113.656 73.0192 111.296 72.5472 108.748 72.5C106.246 72.5 103.91 72.972 101.738 73.916C99.5673 74.86 97.6321 76.158 95.9329 77.8101C94.2337 79.4621 92.9358 81.3737 92.039 83.5449C91.1422 85.7161 90.6702 88.0762 90.623 90.625C90.623 93.1266 91.095 95.4631 92.039 97.6343C92.983 99.8055 94.2809 101.741 95.9329 103.44C97.5849 105.139 99.4965 106.437 101.668 107.334C103.839 108.231 106.199 108.703 108.748 108.75Z" fill="white"/>
</svg>
