<svg width="145" height="145" viewBox="0 0 145 145" fill="none" xmlns="http://www.w3.org/2000/svg">
<path d="M17.3195 129.413C11.8148 123.613 7.55075 117.117 4.52724 109.925C1.50372 102.733 -0.00535609 95.091 1.42829e-05 87C1.42829e-05 68.875 7.04862 53.4688 21.1458 40.7812C35.2431 28.0938 52.3611 21.75 72.5 21.75H74.1111L61.2222 10.15L72.5 0L104.722 29L72.5 58L61.0208 47.6687L73.7083 36.25H72.5C56.9259 36.25 43.6343 41.2042 32.625 51.1125C21.6158 61.0208 16.1111 72.9833 16.1111 87C16.1111 93.1625 17.2174 98.9625 19.43 104.4C21.6426 109.837 24.7655 114.731 28.7986 119.081L17.3195 129.413ZM64.4445 126.875C64.4445 124.096 63.4026 121.348 61.3189 118.632C59.2352 115.915 56.9206 113.076 54.375 110.113C51.8241 107.15 49.5068 104.069 47.4231 100.869C45.3394 97.6696 44.3002 94.2548 44.3056 90.625C44.3056 83.6167 47.0579 77.6354 52.5625 72.6812C58.0671 67.7271 64.713 65.25 72.5 65.25C80.287 65.25 86.9329 67.7271 92.4375 72.6812C97.9421 77.6354 100.694 83.6167 100.694 90.625C100.694 94.25 99.6526 97.6647 97.5689 100.869C95.4852 104.074 93.1706 107.153 90.625 110.106C88.0741 113.069 85.7568 115.908 83.6731 118.624C81.5894 121.341 80.5502 124.091 80.5556 126.875H64.4445ZM64.4445 145V134.125H80.5556V145H64.4445ZM127.681 129.413L116.201 119.081C120.229 114.731 123.352 109.837 125.57 104.4C127.788 98.9625 128.894 93.1625 128.889 87C128.889 79.025 127.044 71.6227 123.355 64.7933C119.665 57.9638 114.596 52.2556 108.146 47.6687L119.625 37.3375C127.412 43.3792 133.588 50.6606 138.153 59.1818C142.718 67.7029 145 76.9757 145 87C145 95.0958 143.488 102.74 140.465 109.932C137.441 117.124 133.18 123.617 127.681 129.413Z" fill="white"/>
</svg>
